<?xml version="1.0" standalone="no"?>
<!DOCTYPE svg PUBLIC "-//W3C//DTD SVG 20010904//EN"
 "http://www.w3.org/TR/2001/REC-SVG-20010904/DTD/svg10.dtd">
<svg version="1.0" xmlns="http://www.w3.org/2000/svg"
 width="512.000000pt" height="512.000000pt" viewBox="0 0 512.000000 512.000000"
 preserveAspectRatio="xMidYMid meet">
<metadata>
Created by potrace 1.11, written by Peter Selinger 2001-2013
</metadata>
<g transform="translate(0.000000,512.000000) scale(0.100000,-0.100000)"
fill="#000000" stroke="none">
<path d="M2330 5110 c-316 -31 -597 -110 -876 -244 -269 -130 -460 -264 -673
-471 -232 -226 -374 -421 -517 -710 -124 -251 -196 -483 -241 -775 -24 -161
-24 -539 0 -700 89 -577 331 -1062 728 -1459 402 -402 911 -652 1489 -732 125
-18 515 -18 640 0 404 56 780 196 1101 412 618 415 1016 1058 1120 1809 18
125 18 515 0 640 -81 585 -332 1092 -742 1497 -394 389 -866 627 -1417 714
-145 22 -475 33 -612 19z m1735 -1242 c-180 -504 -254 -675 -399 -927 -142
-246 -288 -448 -496 -684 l-121 -138 218 -226 c120 -124 305 -310 411 -413
105 -103 192 -189 192 -192 0 -8 -378 -348 -388 -348 -5 0 -208 200 -451 445
l-442 445 -95 -25 c-167 -43 -382 -51 -534 -20 -22 5 -35 -7 -100 -86 -161
-196 -253 -356 -311 -539 -27 -86 -39 -107 -86 -160 -30 -33 -58 -60 -63 -60
-16 0 64 278 123 425 55 139 165 370 225 475 44 77 181 280 269 398 46 63 83
117 81 122 -2 4 -84 99 -184 211 -100 112 -214 242 -254 289 -40 47 -77 85
-81 85 -4 0 -88 -72 -186 -160 -98 -88 -194 -175 -214 -193 l-37 -33 -100 111
-100 112 14 34 c30 71 54 200 54 287 0 69 -6 106 -26 165 -21 63 -23 78 -12
87 8 5 216 192 462 414 373 337 450 401 460 390 7 -8 113 -126 236 -262 188
-209 221 -251 209 -262 -8 -7 -90 -81 -184 -165 -93 -84 -172 -156 -173 -161
-4 -10 18 -37 290 -345 l177 -200 273 271 c360 357 643 599 988 844 137 97
449 301 461 301 3 0 -44 -141 -106 -312z"/>
</g>
</svg>
