<svg xmlns="http://www.w3.org/2000/svg" viewBox="0 0 2483.19 1000"><title>Salud</title><path d="M1247.19,185.49a45.69,45.69,0,0,0,1.8-24.3q-1.8-6.58-8.4-12t-21-7.2a41.27,41.27,0,0,0-9.9-1.2h-9.9a244.61,244.61,0,0,0-45,4.5,280.08,280.08,0,0,0-47.1,13.2,250.73,250.73,0,0,0-43.5,21.3,128.88,128.88,0,0,0-33.9,29.7,94.94,94.94,0,0,0-18.3,37.8q-4.8,20.7,3.6,45.3a143.1,143.1,0,0,0,15.6,32.1,256.48,256.48,0,0,0,23.7,31.2q13.5,15.3,28.8,30t31.5,29.7q19.8,18.62,39,37.5a383.4,383.4,0,0,1,35.1,39.6,300.92,300.92,0,0,1,27.6,42.9,156.18,156.18,0,0,1,15.9,47.4q4.18,36-9.6,73.8a200.68,200.68,0,0,1-42.3,68.4q-28.5,30.6-69.6,49.2t-90.9,16.8q-27-2.4-60.6-12.9a304.32,304.32,0,0,1-64.5-28.8,244.53,244.53,0,0,1-55.5-45,147.14,147.14,0,0,1-34.2-62.1q-10.2-39-1.8-74.1t43.8-69.3l-1.8.6c1.2-1.59,4.5-1.8,9.9-.6a111.06,111.06,0,0,1,19.2,6.6q11.08,4.82,23.4,11.4a219.29,219.29,0,0,1,22.5,13.8,179.93,179.93,0,0,1,16.8,13.2c4.39,4,6.6,7.2,6.6,9.6l-12.6,9.6q-10.8,7.2-21.3,15a95.89,95.89,0,0,0-18.3,17.7,61.06,61.06,0,0,0-11.1,22.2q-3.3,12.31.3,27.9,6,24,19.8,39a100.48,100.48,0,0,0,31.8,23.4,137.93,137.93,0,0,0,38.4,11.4,276,276,0,0,0,40.2,3q34.2,0,60.6-9.9t42.9-27.9q16.5-18,21.9-43.8t-2.4-58.2a116.64,116.64,0,0,0-13.8-31.8,212.13,212.13,0,0,0-22.8-30.3q-13.2-14.68-28.5-28.8t-31.5-27.9q-19.21-16.79-37.2-33.9a365.47,365.47,0,0,1-33-35.7,240.11,240.11,0,0,1-25.5-38.4,135,135,0,0,1-14.1-42.6,154.11,154.11,0,0,1,4.8-63.6,189,189,0,0,1,28.2-57.3,240.84,240.84,0,0,1,46.5-48.3,297,297,0,0,1,59.69-36.6,317.36,317.36,0,0,1,68.1-22.5,276.52,276.52,0,0,1,71.1-5.7q22.2,1.8,38.7,9.3a104.09,104.09,0,0,1,28.8,19.2A98.06,98.06,0,0,1,1294,135.37a155.53,155.53,0,0,1,12,33q8.38,37.8,4.2,66.3a147.37,147.37,0,0,1-18,52.5l-2.41,2.4q-12,10.21-28.79,10.22a50.76,50.76,0,0,1-26.4-7.5,114.32,114.32,0,0,1-22.5-17.4,100.17,100.17,0,0,1-15.6-19.5q-5.71-9.58-5.1-13.8a214.43,214.43,0,0,0,22.8-15.3,129.4,129.4,0,0,0,20.1-18.9A70.22,70.22,0,0,0,1247.19,185.49ZM2482.76,529.43,2475,553.3v.6q-11.36,35.24-25.07,69.53a222.55,222.55,0,0,1-37,61.77,98.47,98.47,0,0,1-9.25,10.44,83.27,83.27,0,0,1-13.43,10.74,76,76,0,0,1-17.6,8.36,61.23,61.23,0,0,1-22.38,2.68q-29.85-2.38-48.64-20.29t-26.56-44.76A192.23,192.23,0,0,1,2239,695.64q-20.58,18.2-45.65,18.8-23.28-2.38-40.88-12.83a117.34,117.34,0,0,1-29.84-24.77,137.82,137.82,0,0,1-20-30.74c-1.57-3.23-3-6.52-4.38-9.85a227.59,227.59,0,0,1-30.84,49.67,85.22,85.22,0,0,1-9.6,10.5,77.48,77.48,0,0,1-14.1,10.5,93,93,0,0,1-18,8.1,69.22,69.22,0,0,1-21.9,3.3q-27-1.2-44.4-22.2t-24.6-51.6c0-.39-.11-.6-.3-.6s-.3-.19-.3-.6a235.4,235.4,0,0,1-27,42.6,85.22,85.22,0,0,1-9.6,10.5,77.48,77.48,0,0,1-14.1,10.5,93.28,93.28,0,0,1-18,8.1,69.22,69.22,0,0,1-21.9,3.3q-26.4-1.2-42.9-22.2t-24.3-51c-.2-1.1-.41-2.23-.64-3.38a247.19,247.19,0,0,1-28.08,44.73A85.55,85.55,0,0,1,1738,697a78,78,0,0,1-14.13,10.52,93,93,0,0,1-18,8.12,69.22,69.22,0,0,1-21.94,3.3q-27-1.2-43.28-22.24t-24-51.69c-.32-.9-.61-1.81-.89-2.72a223.42,223.42,0,0,1-29.12,44.11,97.71,97.71,0,0,1-9.31,10.5,83.08,83.08,0,0,1-13.5,10.8,76.32,76.32,0,0,1-17.69,8.4,61.67,61.67,0,0,1-22.5,2.7q-30-2.4-48.9-20.4t-26.71-45a193.46,193.46,0,0,1-36.29,43.5q-20.7,18.3-45.9,18.9-23.4-2.4-41.1-12.9a118,118,0,0,1-30-24.9,138.3,138.3,0,0,1-20.1-30.9,168.22,168.22,0,0,1-11.4-30.9q-3-15-3-21.6a233.57,233.57,0,0,1,.29-48.6,262.36,262.36,0,0,1,11.11-52.8,301.3,301.3,0,0,1,21.6-51,206.08,206.08,0,0,1,31.2-43.8,148.76,148.76,0,0,1,39.9-30.6q21.89-11.39,48.3-11.4a104.45,104.45,0,0,1,15.6,1.2,165.48,165.48,0,0,1,16.79,3.6,74.5,74.5,0,0,1,28.21,15.3,102.19,102.19,0,0,1,20.4,24.6,158.47,158.47,0,0,1,13.8,30,239.67,239.67,0,0,1,8.39,31.5,5.29,5.29,0,0,1-2.69,5.7,22.72,22.72,0,0,1-8.11,3,59.09,59.09,0,0,1-10.79.9,30.33,30.33,0,0,1-10.8-1.8,215.13,215.13,0,0,1,20.7,12.6,123.16,123.16,0,0,1,18.89,15.9,89.06,89.06,0,0,1,13.5,17.7q5.1,9,5.11,17.4a92.61,92.61,0,0,0-2.11,9.3c-.59,3.41-1.1,6.9-1.5,10.5q-1.8,11.41-3.29,24.6t-2.41,25.8q-.88,12.6-.89,23.7a84.47,84.47,0,0,0,1.8,18.9q.58,1.22-.3,1.8c-.61.41-.91.81-.91,1.2h4.21q15-6,26.4-19.8a160.49,160.49,0,0,0,20.1-31.5,292.38,292.38,0,0,0,15.29-37.8q6.6-20.09,12.61-38.7a43.19,43.19,0,0,0,3.28-8.33q.7-6.63,1.53-13.21,3.6-28.57,9.32-56.5t11.72-55.6l11.42-50.49q4.18-22.82,8.41-46.58t7.22-46.58q3-22.83,4.8-44.18t1.81-39.37q7.8-4.78,22.54.3a117.33,117.33,0,0,1,29.75,15.93,129.34,129.34,0,0,1,26.14,24.94q11.13,14.15,11.12,27.35a255.83,255.83,0,0,1-3.6,25.85q-3,16.83-7.52,37.86T1738.94,337q-5.12,22.55-9.32,42.37l-1.82,7.8q-3,11.43-7.51,31.25T1711,462.56q-4.83,24.35-9.62,51.09t-7.81,51.69q-3,25-3.61,46t3,33.66a5.34,5.34,0,0,0-.3,3,9.15,9.15,0,0,1,.3,1.8h4.2a66.92,66.92,0,0,0,26.45-19.53,150.06,150.06,0,0,0,19.84-30.66,306.55,306.55,0,0,0,15-36.66q6.63-19.52,12.64-38.15h-.6a63.58,63.58,0,0,1,3.31-10.52q1.42-3.47,2.71-6.79,1.32-16.77,2.86-33.36,2.4-30.6,4.5-58.5t2.1-46.5l3.6-8.4q7.2-4.2,21.6,1.2a107.61,107.61,0,0,1,28.8,16.8,132.34,132.34,0,0,1,24.9,25.8q10.49,14.4,9.9,28.2-.62,5.4-2.4,16.2t-4.8,24.6l.6-.6q-3.6,19.8-8.1,44.1t-7.2,48.3q-2.7,24-3.6,45.3t2.72,33.92a16.68,16.68,0,0,0-.6,5.25h5.34a67.16,67.16,0,0,0,26.45-19.53A150.1,150.1,0,0,0,1903,599.61,306.55,306.55,0,0,0,1918,563q6.6-19.51,12.62-38.16h-.33a58.16,58.16,0,0,0,2.09-6.26,54.71,54.71,0,0,1,2.09-6.26q.57-8.32,1.19-17t1.79-17q3.57-31.59,6-60.22t1.79-47.7l4.15-8.37q7.74-4.15,22.06,1.2a107.21,107.21,0,0,1,28.62,16.69,131.87,131.87,0,0,1,24.75,25.64q10.43,14.31,9.84,28-.62,4.79-2.39,14.91t-4.17,22.66l.59-1.19q-3.57,19.66-8,44.71t-7.46,49.49q-3,24.46-3.87,45.62t2.08,34.28c-.8,3.19-1,4.77-.59,4.77H2017s18.8-10.07,26.4-19.27a157.27,157.27,0,0,0,20.1-31.8,347.24,347.24,0,0,0,15.6-38.1q6.9-20.1,12.3-38.7l3.66-11.77c1.36-5.42,2.87-10.8,4.58-16.13a300,300,0,0,1,21.48-50.72,205,205,0,0,1,31-43.57,148.14,148.14,0,0,1,39.69-30.44q21.76-11.32,48-11.34a103.49,103.49,0,0,1,15.52,1.2,162.37,162.37,0,0,1,16.71,3.58q19.69,6.57,32.82,19.69l1.79-7.76,9-34.61q6-22.08,10.45-46t7.46-46.85q3-23,4.17-44.16t1.22-38.47q7.15-4.76,22.38.29a122.31,122.31,0,0,1,56.1,40.29q11,14.33,9.85,27.45,0,7.17-3,23.87t-7.46,37.6Q2412.36,314,2407,337t-10.14,43.27l-7.76,32.82.6-.6q-9.57,37.61-18.21,78.19a729.3,729.3,0,0,0-12.83,87.13l-1.21,0a223.28,223.28,0,0,0-3.28,34.61q-.33,17.34,2.68,29.85c1.2,3.19,1.2,5.37,0,6.56h6q14.92-6,26.26-19.69a159.59,159.59,0,0,0,20-31.34,292.2,292.2,0,0,0,15.22-37.6q6.55-20,12.53-38.49a42.52,42.52,0,0,0,3.29-8.35c.59-2.39,1.28-5,2.09-7.76.78-2,3.58-2.48,8.35-1.5a56.87,56.87,0,0,1,14.92,5.67,58,58,0,0,1,13.43,9.85Q2484.54,525.27,2482.76,529.43ZM1478.18,467.52a14.72,14.72,0,0,1-4.8-6.6c-.41-1.2-.9-2.59-1.5-4.2a42.35,42.35,0,0,1-1.5-4.8q-1.8-6-4.5-12.6A57.82,57.82,0,0,0,1459,427a38.4,38.4,0,0,0-9.6-9.3,27.17,27.17,0,0,0-13.2-4.2q-22.22-.6-39,15.9t-28.5,41.7a247.84,247.84,0,0,0-17.7,54q-6,28.8-6.6,52.2a92.81,92.81,0,0,0,.3,16.5,94,94,0,0,0,3.89,19.5q3,13.81,10.81,22.8t25.19,4.2q7.8-2.39,17.11-13.8a195.28,195.28,0,0,0,18.3-27.3q9-15.88,16.8-33t12.6-30.9q1.8-18,2.4-34.8t-1.8-28.8l-4.8-9.6q4.78-3,13.8-1.2A84.67,84.67,0,0,1,1478.18,467.52Zm812.42-30.58a54.83,54.83,0,0,0-10.8-15.6q-6.62-6.58-17.4-7.8-22.21-.6-39,15.9t-28.5,41.7a246.77,246.77,0,0,0-17.7,54q-6,28.8-6.6,52.2a101.53,101.53,0,0,0,4.2,36q3,13.81,10.8,22.8t25.2,4.18h0q7.78-2.39,16.8-13.5a215.18,215.18,0,0,0,18-26.4,356.06,356.06,0,0,0,16.8-32.4q7.79-17.1,12.6-30.9v-.58l1.8-19.8q2.38-19.8,6-39.9T2290.6,436.94Z" style="fill:#fe5000"/><path d="M874.85,783.87a283.89,283.89,0,0,1-64.48-52.28,187.73,187.73,0,0,1-43.43-78.92l0-.16c-8.45-32.31-9.13-63.77-2-93.53,6.89-28.77,23.44-56.7,49.24-83.12l-.26-.37c6.46-8.56,21.61-22,50.5-15.55l.82.19A151.77,151.77,0,0,1,891.07,469c8.27,3.6,17,7.87,26.07,12.7A261.24,261.24,0,0,1,943.63,498a221.14,221.14,0,0,1,20.49,16.1l.41.37c4.87,4.43,19.66,17.92,19.66,39.17V573.4l-29.36,22.37-1.05.7c-6.6,4.41-13.21,9.06-19.63,13.83l-.11.08a55.69,55.69,0,0,0-10.66,10.31,20.59,20.59,0,0,0-3.81,7.61l-.05.17c-.33,1.25-.35,4,.57,8.17,2.34,9.2,5.82,16.35,10.34,21.27l.14.15a60,60,0,0,0,19.14,14.08,96.68,96.68,0,0,0,17.55,6.17A498.79,498.79,0,0,0,1000,500c0-5.38-.1-10.74-.26-16.07-9.13-8.18-18.08-16.44-26.73-24.67a405.18,405.18,0,0,1-36.52-39.52A280.45,280.45,0,0,1,906.8,375l-.06-.11a174.49,174.49,0,0,1-18.28-55.23l-.11-.76a192.74,192.74,0,0,1,6-80.13l0-.13A230,230,0,0,1,905.93,208C815.14,82,667.15,0,500,0,223.86,0,0,223.86,0,500s223.86,500,500,500c164.42,0,310.3-79.36,401.43-201.87Q887.83,791.59,874.85,783.87ZM745,730a4.8,4.8,0,0,1,.11,6.78l-.24.23-65.3,58.81a4.82,4.82,0,0,1-6.56-.12c-56-54.29-109.75-108.54-163.35-165q-8.88,3.6-18.11,6.44a226,226,0,0,1-111.36,5.38,1.16,1.16,0,0,0-1.09.33c-6.5,6.75-40.51,45.16-57.42,80.49a285.71,285.71,0,0,0-18.41,50.05,108.53,108.53,0,0,1-21.63,24.8,1.2,1.2,0,0,1-1.95-1.17c1-4.58,2-9.13,3.06-13.75,1.8-7.78,4.2-17.51,5.63-22.94,3.8-14.57,31.42-89.27,64.84-141.84a1011.58,1011.58,0,0,1,63.39-88.27C386.9,497.24,357.57,464,328.29,429.94a4.8,4.8,0,0,0-6.77-.51l-.08.07L247.9,495.72a4.81,4.81,0,0,1-6.78-.36l-31.56-35.05a4.79,4.79,0,0,1-1-4.8c1.91-5.38,3.65-10.63,5.27-15.94,1.52-5,2.84-9.87,3.76-14.3a140,140,0,0,0,2.83-33.3,97.48,97.48,0,0,0-8.75-34.06,4.78,4.78,0,0,1,1.15-5.56l164.33-148a4.79,4.79,0,0,1,6.77.36l80.56,89.47a4.8,4.8,0,0,1-.35,6.78L401,357.84a4.79,4.79,0,0,0-.42,6.7c26.67,31,53.38,61.37,80.4,91.44l2-2.17C558,374.21,632,309.47,708.16,255.6,735,236.63,761.91,219,789.8,202a1.2,1.2,0,0,1,1.77,1.42c-12.63,36.38-25.34,72.06-38.4,107.75-8.41,22.92-16.81,43.88-26.79,65.16A730.83,730.83,0,0,1,602.32,561.18q-5.51,6.9-11.48,13.36C641.41,627.59,692.19,678.77,745,730Z" style="fill:#ffffff"/></svg>