<svg xmlns="http://www.w3.org/2000/svg" viewBox="0 0 3041.61 1000"><title>Filosofía</title><path d="M934.61,510.59q5.4,10.23-1.8,17.4T910,535.21a126.54,126.54,0,0,1-16.5-1.2,94.4,94.4,0,0,1-18.9-4.5,132,132,0,0,1-19.2-8.4A82.84,82.84,0,0,1,838,508.79a357.5,357.5,0,0,1-21-32.1,124,124,0,0,1-12.61-31.48,174.48,174.48,0,0,1-3.6-22.5,211.18,211.18,0,0,1-.6-27.9q.62-48,25.5-84t65.4-61.8q40.5-25.77,92.1-43.2a920.31,920.31,0,0,1,106.5-28.8q54.9-11.38,108.6-18.3t98.1-12.3q39.6-4.78,68.7-9.3t48.3-13.5q6.6,12,9.9,30.9a215.8,215.8,0,0,1,3.3,37.2,168.54,168.54,0,0,1-2.7,32.1q-2.7,13.81-8.1,15l-79.2,7.2-97.5,9.9q-50.1,5.13-98.7,12.9a118,118,0,0,1,22.2,23.7q9,12.93,7.8,24.9-10.8,28.21-20.7,59.7t-18.9,65.7q21-4.79,42-8.4l42-7.2,46.2-7.5q24-3.9,46.2-8.7,3.6.63,5.7,7.5a64,64,0,0,1,2.4,16.5,183.29,183.29,0,0,1-.6,20.7,155.24,155.24,0,0,1-3,20.7,81.3,81.3,0,0,1-5.1,16.2q-3,6.63-6,7.2-9.6,1.21-19.5,1.8l-20.1,1.2q-34.2,2.43-72.9,6.6a643.06,643.06,0,0,0-77.1,13.2q-10.2,46.8-18,93.3t-12.3,90.3q-4.5,43.83-5.1,83.1t3.6,70.5q-1.8,17.4-12.6,18.6t-23.4-8.4q-12.6-9.6-22.8-27.6a82.77,82.77,0,0,1-10.8-39,349.79,349.79,0,0,1-6.3-51.6q-1.5-28.18-.6-59.4t4.5-64.8q3.6-33.57,8.4-68.4a246.93,246.93,0,0,0-37.2,26.7,166,166,0,0,0-29.4,33.9q-6,9-10.5,29.1a89.47,89.47,0,0,0,.9,41.7,113.93,113.93,0,0,0,6.3,16.8,41,41,0,0,0,12.3,15l4.2,5.4q4.2,9-.6,13.5t-13.8,5.1a59,59,0,0,1-19.2-2.1q-10.2-2.7-16.2-8.1a97.86,97.86,0,0,1-13.5-21.3,132.67,132.67,0,0,1-8.1-23.1,143.6,143.6,0,0,1-3.6-32.4,190.1,190.1,0,0,1,2.7-32.4,180.51,180.51,0,0,1,7.2-28.5,102.12,102.12,0,0,1,9.91-21.3q23.4-38.38,54.6-63a310,310,0,0,1,68.4-40.8q10.2-53.39,21-102.3t21-89.1q-30,6.62-57.6,14.4-21,7.2-47.4,21a271.57,271.57,0,0,0-48.9,32.7q-22.5,18.9-35.7,41.4t-7.8,47.1q4.21,15,16.8,31.5t37.8,33.9Z" style="fill:#fe5000"/><path d="M1355.58,359.87q7.8-4.19,21.9,1.5a111.91,111.91,0,0,1,27.9,16.8,105.25,105.25,0,0,1,23.1,25.8q9.3,14.71,6.9,28.5c.4-.79.3,0-.3,2.4s-1.5,5.61-2.7,9.6-2.5,8.61-3.9,13.8-2.7,10-3.9,14.4q-6.6,23.4-14.7,53.7t-14.4,57.32a403.85,403.85,0,0,0-8.4,45.9q-2.1,18.9,3.3,18.9h4.2a75.94,75.94,0,0,0,29.7-19.5,165.18,165.18,0,0,0,23.1-30.9,332.63,332.63,0,0,0,18.6-36.9q8.4-19.49,16.2-37.5l4.8-14.4c1.2-2.4,4.2-2.89,9-1.5a48.88,48.88,0,0,1,14.4,7.2,54.79,54.79,0,0,1,12,11.4c3.2,4.2,4.2,7.71,3,10.5v-1.2a588.38,588.38,0,0,1-35.1,79.2q-21.3,40.2-46.49,70.8-4.2,4.21-10.8,9.9a99.44,99.44,0,0,1-14.7,10.5,92.68,92.68,0,0,1-18,8.1,67,67,0,0,1-21.3,3.3q-22.8-.6-38.1-18.3t-21.9-44.1q-1.8-9.58-3-19.8a93.33,93.33,0,0,1,0-21l-.6.6q0-30,6.3-69.6t14.7-79.2q4.81-27,9.3-52.5a399.14,399.14,0,0,0,5.7-46.5Zm17.63-184.08q4.8-.58,12.6,3.3a107.71,107.71,0,0,1,16.8,10.8q9,6.92,18.3,15.6t17.1,16.8a156.17,156.17,0,0,1,12.9,15c3.4,4.61,5.3,8.1,5.7,10.5q1.2,17.41-1.8,30.6t-6,27q-3,13.82-6,28.2a166.16,166.16,0,0,0-3,33.6q-8.4-1.8-19.2-8.7a169.81,169.81,0,0,1-21-15.9,138.39,138.39,0,0,1-17.7-18.6q-7.5-9.57-9.3-16.2a172.1,172.1,0,0,1-3-26.4q-.6-14.4,0-30t0-31.8a195.94,195.94,0,0,0-3.6-31.2Z" style="fill:#fe5000"/><path d="M1600.62,385.87q-3,11.44-7.51,31.25t-9.31,44.17q-4.82,24.34-9.62,51.08t-7.81,51.69q-3,24.95-3.61,46t3,33.65a5.44,5.44,0,0,0-.3,3,9.15,9.15,0,0,1,.3,1.8H1570A66.9,66.9,0,0,0,1596.44,629a149.26,149.26,0,0,0,19.83-30.65,302.61,302.61,0,0,0,15-36.66q6.62-19.51,12.62-38.16h-.6a64.84,64.84,0,0,1,3.31-10.52q2.1-5.09,3.9-9.91.6-3.62,7.51-1.8a56.8,56.8,0,0,1,14.13,6,64.53,64.53,0,0,1,12.92,9.92q5.7,5.72,5.11,9.92l-9,27a692,692,0,0,1-24.94,69.41q-14.71,35.16-35.76,61.6a84.76,84.76,0,0,1-9.61,10.52,77.09,77.09,0,0,1-14.12,10.51,93.28,93.28,0,0,1-18,8.12,69.22,69.22,0,0,1-21.94,3.3q-27-1.2-43.27-22.23t-24-51.69a63.32,63.32,0,0,1-3.31-14.12,113.13,113.13,0,0,1-.9-13.52,422.47,422.47,0,0,1-1.8-59.2q1.2-29.12,4.8-57.69t9.32-56.49q5.73-27.95,11.72-55.59l11.42-50.48q4.2-22.81,8.41-46.57t7.21-46.58q3-22.81,4.81-44.17t1.8-39.34q7.82-4.78,22.54.3a117.07,117.07,0,0,1,29.74,15.92,129.65,129.65,0,0,1,26.15,24.94q11.11,14.15,11.11,27.35a255.63,255.63,0,0,1-3.6,25.84q-3,16.83-7.51,37.86t-9.62,43.57q-5.1,22.53-9.31,42.37Z" style="fill:#fe5000"/><path d="M1793.8,355.21a83,83,0,0,1,44.4,23.4,145,145,0,0,1,29.4,42,93.9,93.9,0,0,1,16.2,20.4,242.4,242.4,0,0,1,13.8,27q1.2,4.83,2.7,9.6A96.82,96.82,0,0,1,1903,489a220.35,220.35,0,0,1,5.7,52.5,242.76,242.76,0,0,1-6,51.6,225.13,225.13,0,0,1-16.5,47.4,166.39,166.39,0,0,1-25.5,39,114.79,114.79,0,0,1-33.3,26.1,85.16,85.16,0,0,1-39.6,9.6q-39-.6-74.7-26.1t-57.3-77.7q-4.79-12.6-9.6-30a175.2,175.2,0,0,1-5.1-53.1,227,227,0,0,1,9.3-53.1,213.13,213.13,0,0,1,21.6-48.6,173.69,173.69,0,0,1,32.1-39.3,130.71,130.71,0,0,1,41.1-25.2A112.89,112.89,0,0,1,1793.8,355.21Zm21.56,158.4q-5.4-1.8-9.6-8.4a90.8,90.8,0,0,1-7.5-14.7,113.54,113.54,0,0,1-5.4-17.1q-2.1-9-3.3-15.6a30.76,30.76,0,0,1,1.5-15.3,51.94,51.94,0,0,1,6.9-13.2,73.77,73.77,0,0,1,8.7-9.9,49.22,49.22,0,0,1,7.5-6c-1.6-.79-4.6-1.2-9-1.2q-12.6,1.23-26.1,10.5a100.35,100.35,0,0,0-23.7,23.1,148.92,148.92,0,0,0-16.8,33.3,201,201,0,0,0-9.58,38.1,217.19,217.19,0,0,0-2.4,39.3,171.49,171.49,0,0,0,4.8,36.3q4.8,22.82,16.8,38.1t32.4,16.5q21.6,1.23,38.4-16.8t26.7-45a216.27,216.27,0,0,0,12.3-58.2q2.4-31.17-3.6-56.4v-3c-3.2,0-6.4,1.31-9.6,3.9a42,42,0,0,0-8.4,9.3,51.29,51.29,0,0,0-5.7,11.4,33.52,33.52,0,0,0-2.1,10.8Z" style="fill:#fe5000"/><path d="M1901.2,626.39a120.11,120.11,0,0,1-.6-49.2q4.82-24,18.6-38.4l8.4-21.6q8.4-28.8,18.3-57t21.9-54.6l8.4-19.2q6-16.2,14.7-34.8t29.1-43.2q10.2,4.82,25.8,13.5a185.66,185.66,0,0,1,28.2,19.2q12.6,10.52,18.3,21.9t-3.3,20.4l1.2-.6q-8.41,10.21-10.8,15.6T2074,412.21l-4.8,12a130.11,130.11,0,0,0-5.7,44.4,240.7,240.7,0,0,0,6.3,46.2q3,12.6,6.9,25.5t8.1,26.1l10.2,36q7.79,27,5.4,49.5t-13.2,38.1a67.9,67.9,0,0,1-29.1,23.7q-18.31,8.1-41.7,6.9a134.5,134.5,0,0,1-43.5-10.2,127.7,127.7,0,0,1-33.9-21,118,118,0,0,1-24-28.8A120.32,120.32,0,0,1,1901.2,626.39Zm88.2-111a75.25,75.25,0,0,1-1.8-9.9,79.35,79.35,0,0,0-1.8-9.9l-11.4,33.6-.6.6q3.6,4.83,9.3,16.5t10.5,24.6a144.68,144.68,0,0,1,6.9,24.6q2.1,11.7-2.1,17.1-7.2-9.57-16.2-11.1a23.67,23.67,0,0,0-16.18,2.72,33,33,0,0,0-11.7,11.7,20.07,20.07,0,0,0-2.7,15.3,79.43,79.43,0,0,0,3.6,7.5c1.6,3,3,5.91,4.2,8.7a53.1,53.1,0,0,0,18.6,14.1,70.79,70.79,0,0,0,19.2,5.7q9,1.21,14.7-3a24.31,24.31,0,0,0,8.4-11.4A47.76,47.76,0,0,0,2023,636a94.76,94.76,0,0,0-2.4-20.4q-3-10.8-6.6-22.2t-8.4-23.4q-4.2-12.6-8.7-26.4A266.56,266.56,0,0,1,1989.4,515.39Z" style="fill:#fe5000"/><path d="M2233.59,355.21a83,83,0,0,1,44.4,23.4,145.35,145.35,0,0,1,29.4,42,93.9,93.9,0,0,1,16.2,20.4,246.75,246.75,0,0,1,13.8,27q1.2,4.83,2.7,9.6a101.48,101.48,0,0,1,2.7,11.4,220.35,220.35,0,0,1,5.7,52.5,242.76,242.76,0,0,1-6,51.6,225.32,225.32,0,0,1-16.5,47.4,166.39,166.39,0,0,1-25.5,39,115.13,115.13,0,0,1-33.3,26.1,85.16,85.16,0,0,1-39.6,9.6q-39-.6-74.7-26.1t-57.3-77.7q-4.8-12.6-9.6-30a174.57,174.57,0,0,1-5.1-53.1,226.39,226.39,0,0,1,9.3-53.1,212.07,212.07,0,0,1,21.6-48.6,173.69,173.69,0,0,1,32.1-39.3,130.59,130.59,0,0,1,41.1-25.2A112.89,112.89,0,0,1,2233.59,355.21Zm21.79,158.4c-3.6-1.2-6.81-4-9.6-8.4a90.8,90.8,0,0,1-7.5-14.7,113.54,113.54,0,0,1-5.4-17.1q-2.12-9-3.3-15.6a30.65,30.65,0,0,1,1.5-15.3,51.94,51.94,0,0,1,6.9-13.2,71.8,71.8,0,0,1,8.7-9.9,49.22,49.22,0,0,1,7.5-6c-1.6-.79-4.6-1.2-9-1.2q-12.6,1.23-26.1,10.5a100.35,100.35,0,0,0-23.7,23.1,148.5,148.5,0,0,0-16.8,33.3,200.27,200.27,0,0,0-9.6,38.1,217.19,217.19,0,0,0-2.4,39.3,170.2,170.2,0,0,0,4.8,36.3q4.8,22.82,16.8,38.1t32.4,16.5q21.6,1.23,38.4-16.8t26.7-45a216.27,216.27,0,0,0,12.3-58.2q2.39-31.17-3.6-56.4v-3c-3.21,0-6.4,1.31-9.6,3.9a42,42,0,0,0-8.4,9.3,51.29,51.29,0,0,0-5.7,11.4,33,33,0,0,0-2.1,10.8Z" style="fill:#fe5000"/><path d="M2473,378q-15.61,73.8-29.7,130.8t-26.1,102.6l-6,24a56.73,56.73,0,0,0,25.2-15.3,140.88,140.88,0,0,0,19.8-26.1,284.17,284.17,0,0,0,16.5-32.1q7.49-17.1,14.7-33.3v.6l11.4-27c1.2-1.59,4.09-1.69,8.7-.3a67.78,67.78,0,0,1,14.1,6.3,51.13,51.13,0,0,1,12.3,9.9c3.39,3.81,4.5,7.11,3.3,9.9a75.88,75.88,0,0,0-3,10.2,54.52,54.52,0,0,1-3,9.6l-.6-1.2q-3,10.8-6,20.1t-6.3,18.6q-3.32,9.32-7.8,18.9t-10.5,21a191.07,191.07,0,0,1-14.1,21.6,127.94,127.94,0,0,1-18,19.5A101.65,101.65,0,0,1,2446,681a80,80,0,0,1-25.2,7.8l3.6,7.2.6,2.4a117.68,117.68,0,0,1,8.4,19.8q3,9.6,6,21a266.22,266.22,0,0,1,7.2,66.9q-.61,34.5-8.1,63t-21.6,46.8q-14.15,18.3-33.9,18.3a51.25,51.25,0,0,1-36.9-17.7q-14.7-16.5-23.1-41.1l-1.8-3.6a411.39,411.39,0,0,1-7.5-75,592.24,592.24,0,0,1,4.2-75.3q4.5-37.49,11.7-75t15-74.1l8.4-36,22.2-119.4,16.2-80.4q4.18-23.4,8.7-47.1t7.5-46.5q3-22.77,4.8-43.8t1.8-39q7.2-4.77,22.8.3a117.71,117.71,0,0,1,30.6,15.6,119.53,119.53,0,0,1,26.1,24.9q11.09,14.4,9.3,27.6l.6-.6q-.61,8.42-3.6,24.9t-7.2,37.2q-4.22,20.7-9.3,43.8T2473,378Zm-82.76,351a640.29,640.29,0,0,0-8.4,74.1q-1.8,35.1,3,76.5,8.38-8.4,13.2-21.9a115.12,115.12,0,0,0,6-30.3,217.17,217.17,0,0,0-.6-35.7,300.83,300.83,0,0,0-6-37.5Z" style="fill:#fe5000"/><path d="M2523.38,359.89q7.78-4.18,21.9,1.5a112.51,112.51,0,0,1,27.9,16.8,105.63,105.63,0,0,1,23.1,25.8q9.28,14.72,6.9,28.5c.39-.79.3,0-.3,2.4s-1.5,5.61-2.7,9.6-2.51,8.61-3.9,13.8-2.7,10-3.9,14.4q-6.62,23.4-14.7,53.7t-14.4,57.3a404,404,0,0,0-8.4,45.9q-2.1,18.9,3.3,18.9h4.2a75.37,75.37,0,0,0,29.1-19.8,181.9,181.9,0,0,0,23.4-31.5,348.43,348.43,0,0,0,19.2-37.5q8.68-19.8,15.9-39l.6,1.2c1.2-3.19,2.29-6.6,3.3-10.2a75.51,75.51,0,0,1,3.3-9.6c1.2-2.4,4.09-2.89,8.7-1.5a54.46,54.46,0,0,1,14.1,6.9,61.43,61.43,0,0,1,12.6,11.1c3.6,4.2,4.8,7.71,3.6,10.5l-.6-.6-8.4,21-.6.6q-13.82,36-31.2,72a246.61,246.61,0,0,1-43.8,63.6q-4.22,4.21-10.8,9.9a101.26,101.26,0,0,1-14.7,10.5,92.68,92.68,0,0,1-18,8.1,67,67,0,0,1-21.3,3.3q-22.82-.6-38.1-18.3t-21.9-44.1q-1.8-9.58-3-19.8a92.18,92.18,0,0,1,0-21l-.6.6q0-30,6.3-69.6t14.7-79.2q4.8-27,9.3-52.5a399.14,399.14,0,0,0,5.7-46.5Zm64.8-154.7q1.8-2.38,6.3,1.5a94.66,94.66,0,0,1,10.2,10.8q5.68,6.91,12,16.2a205,205,0,0,1,10.8,17.7,110,110,0,0,1,6.9,15.3q2.38,6.93,1.2,9.3-17.41,19.23-32.1,30t-29.7,21l-19.8,13.8a13.24,13.24,0,0,1-11.1,3.3,22.56,22.56,0,0,1-11.4-5.1,26.36,26.36,0,0,1-7.8-11.1q-2.7-6.88-.3-15.3Z" style="fill:#fe5000"/><path d="M2900.13,461.29a5.31,5.31,0,0,1-2.7,5.7,22.6,22.6,0,0,1-8.1,3,59.2,59.2,0,0,1-10.8.9,30.33,30.33,0,0,1-10.8-1.8,215.13,215.13,0,0,1,20.7,12.6,123.32,123.32,0,0,1,18.9,15.9,89.73,89.73,0,0,1,13.5,17.7q5.09,9,5.1,17.4a92.56,92.56,0,0,0-2.1,9.3c-.6,3.41-1.11,6.9-1.5,10.5q-1.8,11.41-3.3,24.6t-2.4,25.8q-.9,12.6-.9,23.7a85.66,85.66,0,0,0,1.8,18.9c.39.81.3,1.41-.3,1.8s-.9.81-.9,1.2h4.2q15-6,26.4-19.8a160,160,0,0,0,20.1-31.5,293.87,293.87,0,0,0,15.3-37.8q6.65-20.08,12.65-38.68a42.14,42.14,0,0,0,3.3-8.4c.6-2.4,1.29-5,2.1-7.8.79-2,3.6-2.49,8.4-1.5a56.65,56.65,0,0,1,15,5.7,58.61,58.61,0,0,1,13.5,9.9c3.79,3.81,5.1,7.11,3.9,9.9l-7.8,24v.6q-11.4,35.42-25.2,69.9a223.76,223.76,0,0,1-37.2,62.1,99.71,99.71,0,0,1-9.3,10.5,83.08,83.08,0,0,1-13.5,10.8,76.2,76.2,0,0,1-17.7,8.4,61.67,61.67,0,0,1-22.5,2.7q-30-2.4-48.9-20.4t-26.7-45a193.51,193.51,0,0,1-36.3,43.5q-20.7,18.3-45.9,18.9-23.4-2.4-41.1-12.9a118.16,118.16,0,0,1-30-24.9,139,139,0,0,1-20.1-30.9,168.22,168.22,0,0,1-11.4-30.9q-3-15-3-21.6a233.57,233.57,0,0,1,.3-48.6,261.65,261.65,0,0,1,11.1-52.8,301.3,301.3,0,0,1,21.6-51,206.8,206.8,0,0,1,31.2-43.8,149,149,0,0,1,39.9-30.6q21.9-11.38,48.3-11.4a104.45,104.45,0,0,1,15.6,1.2,165.67,165.67,0,0,1,16.8,3.6,74.74,74.74,0,0,1,28.2,15.3,102.19,102.19,0,0,1,20.4,24.6,158.47,158.47,0,0,1,13.8,30A237.69,237.69,0,0,1,2900.13,461.29Zm-70.16-.5q4.79-3,13.8-1.2a85.12,85.12,0,0,1,19.25,6.62,14.65,14.65,0,0,1-4.8-6.6c-.4-1.2-.9-2.59-1.5-4.2a40.41,40.41,0,0,1-1.5-4.8q-1.8-6-4.5-12.6a58.31,58.31,0,0,0-6.9-12.3,38.74,38.74,0,0,0-9.6-9.3,27.27,27.27,0,0,0-13.2-4.2q-22.21-.58-39,15.9t-28.5,41.7a247.3,247.3,0,0,0-17.7,54q-6,28.8-6.6,52.2a94.72,94.72,0,0,0,.3,16.5,93.23,93.23,0,0,0,3.9,19.5q3,13.83,10.8,22.8t25.2,4.2q7.78-2.37,17.1-13.8a194.69,194.69,0,0,0,18.3-27.3q9-15.87,16.8-33t12.6-30.9q1.8-18,2.4-34.8t-1.8-28.8Z" style="fill:#fe5000"/><path d="M996.18,437.94a497.67,497.67,0,0,0-17.11-81.55,231.19,231.19,0,0,0-35.24,24.37c-11.41,9.58-20.47,20-26.91,31-3.47,5.92-4.53,11.1-3.46,17.11,1.18,3.59,3.83,9.21,9.77,17,4,5.22,12.19,13.83,28.71,25.23l.35.24a349.66,349.66,0,0,1,42.32-25.44C995.13,443.23,995.65,440.59,996.18,437.94Z" style="fill:#ffffff"/><path d="M885.65,766,883.51,764l-1.85-2.22a138,138,0,0,1-19-30l-.11-.23A173.69,173.69,0,0,1,852,701.51l-.19-.79a183.62,183.62,0,0,1-4.6-41.33,230.46,230.46,0,0,1,3.25-39,221.52,221.52,0,0,1,8.75-34.68,141.53,141.53,0,0,1,6.87-16.91c-1.56-.49-3.12-1-4.66-1.54a172.46,172.46,0,0,1-24.81-10.85A123.6,123.6,0,0,1,810.9,538.2l-2.85-2.63-2.29-3.13a401.63,401.63,0,0,1-23.33-35.67l-.16-.27a164.21,164.21,0,0,1-16.68-41.63l-.18-.76A215.82,215.82,0,0,1,761,426.43l0-.22a254.52,254.52,0,0,1-.74-32.56c.63-39.68,11.59-75.2,32.58-105.58,19.57-28.3,45.41-52.8,76.83-72.8q13.95-8.88,29.17-16.89C807.51,77.86,662.85,0,500,0,223.86,0,0,223.86,0,500s223.86,500,500,500c171.75,0,323.27-86.6,413.29-218.52A75.87,75.87,0,0,1,885.65,766ZM745,730a4.8,4.8,0,0,1,.11,6.78l-.24.23-65.3,58.81a4.82,4.82,0,0,1-6.56-.12c-56-54.29-109.75-108.54-163.35-165q-8.88,3.6-18.11,6.44a226,226,0,0,1-111.36,5.38,1.16,1.16,0,0,0-1.09.33c-6.5,6.75-40.51,45.16-57.42,80.49a285.71,285.71,0,0,0-18.41,50.05,108.53,108.53,0,0,1-21.63,24.8,1.2,1.2,0,0,1-1.95-1.17c1-4.58,2-9.13,3.06-13.75,1.8-7.78,4.2-17.51,5.63-22.94,3.8-14.57,31.42-89.27,64.84-141.84a1011.58,1011.58,0,0,1,63.39-88.27C386.9,497.24,357.57,464,328.29,429.94a4.8,4.8,0,0,0-6.77-.51l-.08.07L247.9,495.72a4.81,4.81,0,0,1-6.78-.36l-31.56-35.05a4.79,4.79,0,0,1-1-4.8c1.91-5.38,3.65-10.63,5.27-15.94,1.52-5,2.84-9.87,3.76-14.3a140,140,0,0,0,2.83-33.3,97.48,97.48,0,0,0-8.75-34.06,4.78,4.78,0,0,1,1.15-5.56l164.33-148a4.79,4.79,0,0,1,6.77.36l80.56,89.47a4.8,4.8,0,0,1-.35,6.78L401,357.84a4.79,4.79,0,0,0-.42,6.7c26.67,31,53.38,61.37,80.4,91.44l2-2.17C558,374.21,632,309.47,708.16,255.6,735,236.63,761.91,219,789.8,202a1.2,1.2,0,0,1,1.77,1.42c-12.63,36.38-25.34,72.06-38.4,107.75-8.41,22.92-16.81,43.88-26.79,65.16A730.83,730.83,0,0,1,602.32,561.18q-5.51,6.9-11.48,13.36C641.41,627.59,692.19,678.77,745,730Z" style="fill:#ffffff"/></svg>