<svg xmlns="http://www.w3.org/2000/svg" viewBox="0 0 4303 1000"><title>Arquitectura</title><path d="M2425.36,219.59a199.33,199.33,0,0,0-3.6-31.2l7.2-12.6q4.77-.58,12.6,3.3a107.45,107.45,0,0,1,16.8,10.8q9,6.9,18.3,15.6t17.1,16.8a157.6,157.6,0,0,1,12.9,15c3.39,4.61,5.29,8.1,5.7,10.5q1.2,17.4-1.8,30.6t-6,27q-3,13.8-6,28.2a165.32,165.32,0,0,0-3,33.6q-8.4-1.79-19.2-8.7a169.3,169.3,0,0,1-21-15.9,137.73,137.73,0,0,1-17.7-18.6q-7.5-9.58-9.3-16.2a168.58,168.58,0,0,1-3-26.4q-.62-14.38,0-30T2425.36,219.59Zm1877.2,308.2-7.81,24v.6q-11.44,35.42-25.25,69.9a224,224,0,0,1-37.27,62.1,100.91,100.91,0,0,1-9.32,10.5,83.3,83.3,0,0,1-13.53,10.8,76.41,76.41,0,0,1-17.73,8.4,61.86,61.86,0,0,1-22.54,2.7q-30-2.4-49-20.4t-26.75-45a193.81,193.81,0,0,1-36.37,43.5q-20.74,18.3-46,18.9-23.46-2.4-41.18-12.9a118.24,118.24,0,0,1-30.06-24.9,138.43,138.43,0,0,1-20.13-30.9q-2.26-4.76-4.15-9.35c-.62,1.12-1.23,2.23-1.86,3.35a210.31,210.31,0,0,1-28,38.7A135.57,135.57,0,0,1,3849.6,706q-20.14,10.8-44.78,9.6a62.41,62.41,0,0,1-26.15-6.6,76.83,76.83,0,0,1-21-15.9,94.06,94.06,0,0,1-15.63-22.5,111.32,111.32,0,0,1-9.32-26.4A161.68,161.68,0,0,1,3730,607a171.85,171.85,0,0,1,4.81-33,233.32,233.32,0,0,1,9.92-30.6q6-15,13.22-30.6l7.82-16.8v.8l9.58-20.4a43.29,43.29,0,0,1,8.1-12q5.09-5.4,20.7-10.2-7.83,1.8-12.6,2.7a63.68,63.68,0,0,0-8.4,2.1c-4.41,1.2-9,2.4-13.8,3.6a137,137,0,0,1-17.4,2.2h-6c-5.61,12.61-10.6,25.89-15,38.9s-12.54,37.43-13,37.81l-3.79,11.09q-10.82,34.21-24.9,69.6a233.7,233.7,0,0,1-36.3,62.4,86.83,86.83,0,0,1-9.6,10.5,78.17,78.17,0,0,1-14.1,10.5,93.56,93.56,0,0,1-18,8.1,69.26,69.26,0,0,1-21.9,3.3q-27-1.2-44.4-22.2t-24.6-51.6c0-.39-.09-.6-.3-.6s-.3-.19-.3-.6a236,236,0,0,1-27,42.6,86.83,86.83,0,0,1-9.6,10.5,78.17,78.17,0,0,1-14.1,10.5,93.56,93.56,0,0,1-18,8.1,69.26,69.26,0,0,1-21.9,3.3q-26.4-1.2-42.9-22.2t-24.3-51c-.23-1.26-.48-2.57-.75-3.9a247.26,247.26,0,0,1-28.05,44.7,87.59,87.59,0,0,1-9.6,10.5,78.17,78.17,0,0,1-14.1,10.5,93.56,93.56,0,0,1-18,8.1,69.26,69.26,0,0,1-21.9,3.3q-27-1.2-43.2-22.2t-24-51.6a60.63,60.63,0,0,1-2.59-9.61,329.09,329.09,0,0,1-24.44,37.81q-13.8,16.82-29.1,26.1a135.7,135.7,0,0,1-29.7,13.8,119.94,119.94,0,0,1-26.7,5.4q-12.3.9-19.5.9-46.8,0-78.3-27-26.13-22.44-39.26-58.51a330.48,330.48,0,0,1-25.2,39.32q-13.8,16.82-29.1,26.1a135.7,135.7,0,0,1-29.7,13.8,119.94,119.94,0,0,1-26.7,5.4q-12.3.9-19.5.9-46.8,0-78.3-27-24.9-21.32-38-55a250.33,250.33,0,0,1-30.14,49,86.83,86.83,0,0,1-9.6,10.5,78.17,78.17,0,0,1-14.1,10.5,93.56,93.56,0,0,1-18,8.1,69.26,69.26,0,0,1-21.9,3.3q-27-1.2-43.2-22.2t-24-51.6a63.26,63.26,0,0,1-3.3-14.1c-.25-2.05-.43-4-.58-5.89a412.8,412.8,0,0,1-41.71,62q-4.23,4.21-10.8,9.9a102,102,0,0,1-14.7,10.5,93.56,93.56,0,0,1-18,8.1,67.28,67.28,0,0,1-21.3,3.3q-22.8-.6-38.1-18.3-14.58-16.86-21.25-41.64a221.28,221.28,0,0,1-19.25,27.54,86.83,86.83,0,0,1-9.6,10.5,78.17,78.17,0,0,1-14.1,10.5,93.56,93.56,0,0,1-18,8.1,69.26,69.26,0,0,1-21.9,3.3q-27-1.2-44.4-22.2t-24.6-51.6c0-.39-.09-.6-.3-.6s-.3-.19-.3-.6a236,236,0,0,1-27,42.6,86.83,86.83,0,0,1-9.6,10.5,78.17,78.17,0,0,1-14.1,10.5,93.56,93.56,0,0,1-18,8.1,69.26,69.26,0,0,1-21.9,3.3q-26.4-1.2-42.9-22.2t-24.3-51q-1.2-6.59-3-14.4a64.16,64.16,0,0,1-1.8-14.4,243.18,243.18,0,0,1-.6-30.3q.55-16.76,2-34.66l-15.84,72.76q-7.21,33.6-14.1,69t-11.7,70.8q-4.82,35.4-6.3,70.8a533.66,533.66,0,0,0,1.5,69.6q-1.23,6-11.7,5.1a86.76,86.76,0,0,1-23.1-5.7,114.94,114.94,0,0,1-24-12.6q-11.43-7.8-13.8-15.6a340.55,340.55,0,0,1-6.9-95.1,895.83,895.83,0,0,1,11.7-94.5,109.29,109.29,0,0,1-27,21,67.91,67.91,0,0,1-30,8.4q-23.43-2.4-41.1-12.9a118.37,118.37,0,0,1-30-24.9,138.76,138.76,0,0,1-20.1-30.9c-1.5-3.18-2.87-6.29-4.14-9.35-.62,1.12-1.23,2.23-1.86,3.35a210.33,210.33,0,0,1-27.9,38.7,135.41,135.41,0,0,1-36,28.2q-20.1,10.8-44.7,9.6a62.19,62.19,0,0,1-26.1-6.6,76.64,76.64,0,0,1-21-15.9,93.94,93.94,0,0,1-15.6-22.5,111.58,111.58,0,0,1-9.3-26.4,161.17,161.17,0,0,1-2.7-37.2,170.94,170.94,0,0,1,4.8-33,235.77,235.77,0,0,1,9.9-30.6q6-15,13.2-30.6l7.67-16.8v.61l9.13-20.4a43.44,43.44,0,0,1,8.1-12q5.07-5.4,20.7-10.2-7.8,1.8-12.6,2.7a63.68,63.68,0,0,0-8.4,2.1c-4.41,1.2-9,2.4-13.8,3.6-5.71,1.27-17.4,1.17-17.4,1.17h-5.71c-.64,1.54-1.24,3.07-1.86,4.6-4.69,21.08-21.4,69.17-22.36,71.4l-7.8,24v.6q-11.4,35.4-25.2,69.92a224,224,0,0,1-37.2,62.1,100.72,100.72,0,0,1-9.3,10.5,84.05,84.05,0,0,1-13.5,10.8,76.58,76.58,0,0,1-17.7,8.4,62.1,62.1,0,0,1-22.5,2.7c-20-1.6-36-2.22-47.4-23.4-.32-.59-.62-1.22-.93-1.84l-.47,0c-.43-1.31-.84-2.63-1.23-4-4.57-11.58-6.92-27.24-7.14-42.59q-.62-10.07-.3-20.18.9-27,2.7-44.93,5.39-33.54,12.88-66.77t17.07-66.8c-5.19-.39-10.18-.6-15-.6h-13.84q-10.12,0-19.94.3t-19.94.89l-17.26,23.81h.11L1334.91,514q-21,28.78-43.76,59.35T1243.49,633q-24.88,29.07-51.85,55.15a441.76,441.76,0,0,1-56.06,46.16A295.62,295.62,0,0,1,1075,766.65a209.5,209.5,0,0,1-65.65,14.08q-49.15,2.4-88.72-12t-69.24-40.46A234.92,234.92,0,0,1,802,667.43a274.45,274.45,0,0,1-28.76-72.54,250.25,250.25,0,0,1-6-84.22q4.2-42.26,24-76.14t55.45-55.75q35.67-21.86,88.43-23.08,42-.6,77,19.78t62.05,58.15l1.8,3q3,6.62,4.79,19.78a117.65,117.65,0,0,1,.9,24.88q-.9,11.67-5.1,17.69t-12.58-1.8a288.66,288.66,0,0,0-22.19-24.58,237.86,237.86,0,0,0-28.46-24.28,188.68,188.68,0,0,0-32.37-18.88,81.36,81.36,0,0,0-33.87-7.8q-40.77-1.2-68.34,13.19T835.25,473.5q-15.88,24.27-19.78,54.85a171,171,0,0,0,3.3,61.15,178.09,178.09,0,0,0,19.17,47.34,154.6,154.6,0,0,0,80,67.76q26.68,10.18,59.65,10.19h8.82a71.07,71.07,0,0,0,9-.6q36.54-3,71.89-23.66t69.79-53.62a797.72,797.72,0,0,0,68.59-75.18q34.15-42.22,68.3-88.36-24,6.58-47.33,15.57A407.31,407.31,0,0,0,1180,510.51l-2.39.6q-5.4,1.8-15.88-5.39A117.25,117.25,0,0,1,1141.61,488a106.93,106.93,0,0,1-15.27-21q-5.7-10.49-1.5-15.28,46.73-12.58,95.25-23.36a995.54,995.54,0,0,1,99.45-16.78q44.32-59.93,84.17-118.31t71-106.64q31.15-48.24,51.82-82.67t26.66-47.63q3.6-1.78,12.88,4.2a139.62,139.62,0,0,1,19.47,15.57,220.63,220.63,0,0,1,19.47,21q9.29,11.4,13.48,19.17c3.86,1.14,5.85,3.64,6,7.43a410.13,410.13,0,0,1-7.47,46.49q-5.7,27-14.13,59T1584,296.66q-10.47,35.37-21.26,72.49-16.18,55.73-31.75,111.72t-26.36,104.24q-8.52,38.11-12.36,68.72A70.51,70.51,0,0,0,1507.35,640a161,161,0,0,0,20.1-31.5,295.31,295.31,0,0,0,15.3-37.8q6.6-20.1,12.6-38.7c1.59-3.2,4.59-13.4,5.4-16.2.63-1.58,14.79-50.77,23-70.72a61.4,61.4,0,0,1-11.44-23.21q-4.2-18.6,0-32.95t10.81-33.54a156.71,156.71,0,0,0,4.2-17.36q1.8-9.58,3-23.36,10.2,4.82,20.72,9.88a115.48,115.48,0,0,1,19.52,12,85.69,85.69,0,0,1,15.91,15.87,50,50,0,0,1,9.31,20.36,96.37,96.37,0,0,1,1.8,11.68,63.29,63.29,0,0,1-.6,14.68l-14.41,26.95q-1.8,3.58,3.3.9a110.76,110.76,0,0,0,13.81-9.29q8.71-6.59,19.52-15.57t20.72-18q9.91-9,17.72-16.77t10.21-12c2.4,0,5.79,1.2,10.21,3.6s9,5.08,13.81,8.08,9,5.81,12.61,8.39a79.49,79.49,0,0,1,6.61,5.09,39.38,39.38,0,0,1,9.91,24.26q.9,14.08-3.6,30.84a265.14,265.14,0,0,1-12.62,35.64q-8.11,18.86-17.71,38.63-5.42,10.77-11.11,21.56t-10.51,22.16q-3.62,8.39-8.41,19.16a222.58,222.58,0,0,0-8.41,21.87,152.06,152.06,0,0,0-5.41,21.86q-1.8,10.77,0,18c0,2.4,2.41,3.6,7.21,3.6q6.62.61,15.32-4.49a84.28,84.28,0,0,0,17.71-14.38,140.14,140.14,0,0,0,17.12-21.86,135.39,135.39,0,0,0,13.51-27.55h-.6q7.53-18.46,13.66-36.43a265.56,265.56,0,0,1,9.76-42,302,302,0,0,1,21.62-50.91,206.43,206.43,0,0,1,31.23-43.72,148.94,148.94,0,0,1,39.94-30.54q21.91-11.39,48.35-11.38a103.17,103.17,0,0,1,15.61,1.19,166,166,0,0,1,16.82,3.6,74.8,74.8,0,0,1,28.23,15.27,101.84,101.84,0,0,1,20.41,24.56A156.8,156.8,0,0,1,2033,429.34a240.61,240.61,0,0,1,8.41,31.45q.6,4.8-5.41,7.18a36.82,36.82,0,0,1-13.81,2.4,40,40,0,0,1-14.72-2.7l-.06,0a115,115,0,0,1,20.08,11.87,141,141,0,0,1,26.37,24.64q8.08,9.82,10.73,19.35c.36-4.11.68-8.24,1-12.44q1.5-19.51,3.3-38.76,2.39-30.68,4.49-58.59t2.1-46.58l3.59-8.41q7.2-4.22,21.58,1.2a107.7,107.7,0,0,1,28.77,16.83,132.12,132.12,0,0,1,24.87,25.84q10.49,14.43,9.89,28.24-.6,5.4-2.4,16.23T2157,471.71l.6-.6q-3.6,19.83-8.09,44.17t-7.2,48.38q-2.68,24-3.59,45.37t2.69,34c-.8,3.22-1,4.81-.59,4.81h5.39a66.88,66.88,0,0,0,26.37-19.53,150.3,150.3,0,0,0,19.78-30.65,306.32,306.32,0,0,0,15-36.66q6.6-19.51,12.59-38.16h-.6a58.32,58.32,0,0,0,2.1-6.31,56.16,56.16,0,0,1,2.09-6.31q.63-8.43,1.2-17.13t1.8-17.12q3.61-31.87,6-60.7t1.8-48.08l4.2-8.41q7.78-4.22,22.17,1.2a107.7,107.7,0,0,1,28.77,16.83,132.12,132.12,0,0,1,24.87,25.84q10.47,14.43,9.89,28.24-.59,4.82-2.39,15t-4.2,22.83l.6-1.2q-3.6,19.83-8.09,45.07t-7.49,49.88q-3,24.63-3.9,46t2.1,34.55c-.81,3.22-1,4.81-.6,4.81h6q15-6,26.37-19.83a156.82,156.82,0,0,0,20.08-31.85A345.28,345.28,0,0,0,2368.25,558q6.9-20.12,12.29-38.77l3.63-11.71q3.89-21.2,8.36-42.37,4.78-27,9.29-52.59a402.75,402.75,0,0,0,5.69-46.57l4.2-7.21q7.77-4.2,21.87,1.5a111.84,111.84,0,0,1,27.87,16.83,105.75,105.75,0,0,1,23.08,25.84q9.27,14.75,6.89,28.54c.39-.79.3,0-.3,2.41s-1.5,5.6-2.7,9.61-2.51,8.63-3.89,13.83-2.7,10-3.9,14.42q-6.6,23.43-14.68,53.78t-14.39,57.4q-6.29,27-8.39,46t3.3,18.93h4.19a76,76,0,0,0,29.67-19.53,167,167,0,0,0,23.08-31,337.68,337.68,0,0,0,18.57-37q8.39-19.53,16.19-37.56l4.79-14.42q.95-7.53,2.09-15,9.32-60.09,22.47-117.18a21.64,21.64,0,0,0,1.5-6q.3-3,.9-6l-31.16,20.43-1.8.6q-9.59,3.6-17.68,0a28.25,28.25,0,0,1-12.59-10.52,25.66,25.66,0,0,1-4.19-15.32q.3-8.4,8.09-15a412.9,412.9,0,0,1,73.72-51.08q7.17-38.45,11.08-72.11a457.4,457.4,0,0,0,3.3-61.9q7.79-4.8,22.48.3a116.75,116.75,0,0,1,29.66,15.92,129.51,129.51,0,0,1,26.07,24.94q11.1,14.15,11.09,27.35-.6,4.82-1.8,12.92t-3,18.33q18.57-3.59,37.45-5.71a351.72,351.72,0,0,1,38.66-2.1c4,0,9.19.11,15.59.3s11.78.51,16.18.9a50.45,50.45,0,0,1,5.69,19.53,64.76,64.76,0,0,1-1.2,19.83,40.32,40.32,0,0,1-7.19,15.93q-5.1,6.6-12.29,6.61c-4-.39-8.18-.71-12.58-.9s-8.79-.31-13.19-.31a340.44,340.44,0,0,0-40.75,2.41,344.47,344.47,0,0,0-39.55,7.21l-12,54.69-1.79,7.81q-3,11.41-7.5,31.25t-9.29,44.17q-4.78,24.33-9.59,51.08t-7.79,51.69q-3,24.93-3.59,46t3,33.65a5.53,5.53,0,0,0-.3,3,7.88,7.88,0,0,1,.3,1.8h4.2A66.88,66.88,0,0,0,2652,628.26a150.3,150.3,0,0,0,19.78-30.65,306.32,306.32,0,0,0,15-36.66q3.19-9.48,6.25-18.74c.19-1.87.39-3.73.64-5.6q5.1-39,24.28-84.73,6.59-15,19.48-32.15A180.81,180.81,0,0,1,2768,388.17a158.12,158.12,0,0,1,39.26-23.43,110,110,0,0,1,45.55-8.42,69.53,69.53,0,0,1,43.75,16.53q19.18,15.93,25.17,43,5.39,24.06-3,50.48v-.6q-14.39,54.07-48.55,90.14t-82.71,53.49A112.44,112.44,0,0,0,2801.87,640q9.6,14.41,24.58,17.43l-1.2-.61q12.59,3,27-1.8T2881,637.87q14.39-12.32,28.17-32.15t24.57-46.87q4-10.61,7.41-21.62a1.88,1.88,0,0,0,.07-.62q5.11-39,24.27-84.73,6.61-15,19.48-32.15a181.94,181.94,0,0,1,30.57-31.56,158.42,158.42,0,0,1,39.26-23.43,109.93,109.93,0,0,1,45.55-8.42,67.08,67.08,0,0,1,43.15,16.53q18.57,15.94,24.57,41.77a88.47,88.47,0,0,1,2.7,23.76,73.57,73.57,0,0,1-5.1,24.33q-4.18,7.85-10.79,9.32a19.15,19.15,0,0,1-13.48-2.1,32.36,32.36,0,0,1-12-11.42,36.24,36.24,0,0,1-5.69-18q3.6-10.22.6-19.23a7,7,0,0,0-2.7-4.51c-1.4-1-3.49-1.09-6.29-.3q-22.18,4.83-38.36,23.44a165.68,165.68,0,0,0-26.67,42.67,240,240,0,0,0-15.58,50.18q-5.1,26.13-5.1,46a56.38,56.38,0,0,1,1.5,10.82,117.53,117.53,0,0,0,1.5,13.22,143.8,143.8,0,0,0,6,17.73,89.69,89.69,0,0,0,8.69,16.22A66.93,66.93,0,0,0,3059,649.91a33.16,33.16,0,0,0,15,7.52l-1.19-.61q12.58,3,27-1.8t28.76-17.13q14.39-12.32,28.17-32.15t24.58-46.87q5.39-14.43,9.88-29.75t8.1-29.15a18.93,18.93,0,0,1,1.51-2.62c.19-1.34.38-2.67.58-4q9.32-60.09,22.48-117.18a22.36,22.36,0,0,0,1.5-6q.3-3,.9-6L3195,384.57l-1.8.6q-9.58,3.6-17.68,0A28.17,28.17,0,0,1,3163,374.65a25.73,25.73,0,0,1-4.2-15.32q.32-8.4,8.09-15a412.9,412.9,0,0,1,73.72-51.08q7.17-38.45,11.09-72.11a459,459,0,0,0,3.29-61.9q7.78-4.8,22.48.3a116.81,116.81,0,0,1,29.67,15.92,129.77,129.77,0,0,1,26.07,24.94q11.09,14.15,11.09,27.35-.6,4.82-1.8,12.92t-3,18.33q18.59-3.59,37.46-5.71a351.59,351.59,0,0,1,38.66-2.1c4,0,9.19.11,15.58.3s11.77.51,16.18.9a50.29,50.29,0,0,1,5.7,19.53,65.07,65.07,0,0,1-1.2,19.83,40.46,40.46,0,0,1-7.19,15.93q-5.1,6.6-12.29,6.61c-4-.39-8.18-.71-12.59-.9s-8.79-.31-13.18-.31a340.73,340.73,0,0,0-40.76,2.41,344.47,344.47,0,0,0-39.55,7.21l-12,54.69-1.8,7.81q-3,11.41-7.49,31.25t-9.29,44.17q-4.8,24.33-9.59,51.08t-7.79,51.68q-3,24.95-3.6,46t3,33.65a5.43,5.43,0,0,0-.3,3,8.46,8.46,0,0,1,.3,1.8h4.19a66.84,66.84,0,0,0,26.38-19.53,149.83,149.83,0,0,0,19.77-30.65,306.37,306.37,0,0,0,15-36.66q6.58-19.51,12.58-38.16h-.6a64.81,64.81,0,0,1,3.3-10.52c1-2.48,2-4.89,2.89-7.28q1.29-16.44,2.8-32.68,2.4-30.68,4.5-58.59t2.1-46.58l3.59-8.41q7.2-4.22,21.58,1.2a107.85,107.85,0,0,1,28.77,16.83,132.12,132.12,0,0,1,24.87,25.84q10.49,14.43,9.89,28.24-.6,5.4-2.4,16.23t-4.79,24.64l.6-.6q-3.6,19.83-8.1,44.17t-7.19,48.38q-2.68,24-3.59,45.37t2.69,34c-.81,3.22-1,4.81-.6,4.81h5.4a66.88,66.88,0,0,0,26.37-19.53,150.3,150.3,0,0,0,19.78-30.65,306.32,306.32,0,0,0,15-36.66q6.6-19.51,12.59-38.16h-.6a58.32,58.32,0,0,0,2.1-6.31,56.16,56.16,0,0,1,2.09-6.31q.63-8.43,1.2-17.13t1.8-17.12q3.6-31.87,6-60.7t1.8-48.08l4.2-8.41q7.78-4.22,22.17,1.2a107.7,107.7,0,0,1,28.77,16.83,132.12,132.12,0,0,1,24.87,25.84q10.49,14.43,9.89,28.24-.59,4.82-2.4,15t-4.19,22.83l.6-1.2q-3.6,19.83-8.09,45.07t-7.49,49.88q-3,24.63-3.9,46T3596,643c-.81,3.22-1,4.81-.6,4.81h6.26q15-6,26.45-19.8a156.74,156.74,0,0,0,20.14-31.8,346.62,346.62,0,0,0,15.63-38.1c4.61-13.39,29-76.57,30.66-82.2q5.11-17.08,9.32-30.3a61.49,61.49,0,0,1-12-24q-4.22-18.61,0-33t10.82-33.6a157.94,157.94,0,0,0,4.2-17.4q1.79-9.58,3-23.4,10.21,4.81,20.74,9.9a115.5,115.5,0,0,1,19.54,12,86.58,86.58,0,0,1,15.93,15.9,50.31,50.31,0,0,1,9.31,20.4,98.41,98.41,0,0,1,1.81,11.7,64.57,64.57,0,0,1-.6,14.7l-14.43,27c-1.2,2.4-.11,2.7,3.3.9a111.06,111.06,0,0,0,13.83-9.3q8.72-6.6,19.54-15.6t20.74-18q9.93-9,17.73-16.8t10.22-12q3.6,0,10.22,3.6t13.83,8.1q7.2,4.51,12.62,8.4a79.61,79.61,0,0,1,6.61,5.1,39.52,39.52,0,0,1,9.92,24.3q.9,14.11-3.61,30.9a265.44,265.44,0,0,1-12.62,35.7q-8.13,18.9-17.73,38.7-5.4,10.79-11.12,21.6t-10.52,22.2q-3.63,8.4-8.42,19.2a223.18,223.18,0,0,0-8.42,21.9,152.91,152.91,0,0,0-5.41,21.9q-1.8,10.8,0,18,0,3.6,7.22,3.6,6.59.62,15.33-4.5a84.74,84.74,0,0,0,17.73-14.4,140.52,140.52,0,0,0,17.13-21.9,135.86,135.86,0,0,0,13.53-27.6h-.6q7.51-18.49,13.67-36.5a264,264,0,0,1,9.77-42.1,300.66,300.66,0,0,1,21.64-51,206.35,206.35,0,0,1,31.26-43.8,149,149,0,0,1,40-30.6q21.91-11.4,48.39-11.4a104.85,104.85,0,0,1,15.63,1.2,166.82,166.82,0,0,1,16.83,3.6,74.59,74.59,0,0,1,28.25,15.3,102.12,102.12,0,0,1,20.44,24.6,158.59,158.59,0,0,1,13.83,30,238.2,238.2,0,0,1,8.41,31.5,5.29,5.29,0,0,1-2.7,5.7,22.77,22.77,0,0,1-8.12,3,59.42,59.42,0,0,1-10.82.9,30.48,30.48,0,0,1-10.82-1.8,214.51,214.51,0,0,1,20.74,12.6,124.11,124.11,0,0,1,18.94,15.9,89.82,89.82,0,0,1,13.52,17.7q5.11,9,5.11,17.4a92.56,92.56,0,0,0-2.1,9.3c-.6,3.41-1.11,6.9-1.51,10.5q-1.8,11.41-3.3,24.6t-2.41,25.8q-.9,12.62-.9,23.7a85.07,85.07,0,0,0,1.81,18.9c.39.8.3,1.41-.3,1.8s-.91.81-.91,1.2h4.21q15-6,26.45-19.8a160.21,160.21,0,0,0,20.14-31.5,294,294,0,0,0,15.33-37.8q6.61-20.09,12.62-38.7a42.41,42.41,0,0,0,3.31-8.4c.6-2.4,1.29-5,2.1-7.8.79-2,3.61-2.5,8.42-1.5a57.11,57.11,0,0,1,15,5.7,58.59,58.59,0,0,1,13.51,9.88C4302.46,521.68,4303.77,525,4302.56,527.79ZM1458.65,407.41q9.6-31.8,20.1-62.7v0q10.5-30.88,21.3-62.68l-42.6,61.8-44.4,61.8Q1435.85,405.61,1458.65,407.41Zm546.75,59.31c-3.34-1.75-5.36-4.12-6-7.13-.4-1.2-.91-2.59-1.51-4.19a42.35,42.35,0,0,1-1.5-4.8q-1.8-6-4.5-12.57a57.53,57.53,0,0,0-6.91-12.28,38.36,38.36,0,0,0-9.61-9.28,27.34,27.34,0,0,0-13.21-4.2q-22.22-.6-39,15.87t-28.52,41.63a246.18,246.18,0,0,0-17.72,53.9q-6,28.76-6.61,52.11a94.38,94.38,0,0,0,.3,16.47,92.25,92.25,0,0,0,3.91,19.46q3,13.77,10.81,22.76t25.22,4.2q7.82-2.38,16.82-13.48a204.9,204.9,0,0,0,18-26.65q9-15.59,16.81-32.64t12.61-30.85l3-29.34V506a183.79,183.79,0,0,0,0-20.73,166.21,166.21,0,0,0-3-22.54q7.79-4.19,22.77.91Q2001.53,465,2005.4,466.72Zm777.75,91.87a180.26,180.26,0,0,0,60-47.1q24.6-29.7,33.6-71.1v.6a23.29,23.29,0,0,0,1.5-9.6c-.21-3.19-.51-6-.9-8.4q-2.4-8.39-9.6-6a66.92,66.92,0,0,0-34.5,19.2,144.29,144.29,0,0,0-25.2,35.4,222.25,222.25,0,0,0-16.8,43.5A248.08,248.08,0,0,0,2783.15,558.59ZM4124,466.19a14.57,14.57,0,0,1-4.8-6.6c-.41-1.2-.9-2.59-1.5-4.2a41,41,0,0,1-1.5-4.8q-1.8-6-4.5-12.6a57.82,57.82,0,0,0-6.9-12.3,38.74,38.74,0,0,0-9.6-9.3,27.2,27.2,0,0,0-13.2-4.2q-22.2-.6-39,15.9t-28.5,41.7a246.59,246.59,0,0,0-17.7,54q-6,28.8-6.6,52.2a101.53,101.53,0,0,0,4.2,36q3,13.77,10.8,22.8t25.2,4.2q7.77-2.4,17.1-13.8a197,197,0,0,0,18.3-27.3q9-15.93,16.8-33t12.6-30.9q1.8-18,2.4-34.8t-1.8-28.8l-4.8-9.6q4.8-3,13.8-1.2A84.84,84.84,0,0,1,4124,466.19Z" style="fill:#fe5000"/><path d="M825,758.33a274.51,274.51,0,0,1-57.8-71.09,314.47,314.47,0,0,1-32.88-82.91,289.33,289.33,0,0,1-6.93-97.59c3.35-33.82,13.19-64.89,29.24-92.37,16.49-28.25,39.73-51.7,69.09-69.69,29.77-18.25,66.24-28,108.4-29h.35a197.48,197.48,0,0,1,31.23,2C892.87,131.72,711.82,0,500,0,223.86,0,0,223.86,0,500s223.86,500,500,500c162.31,0,306.55-77.34,397.89-197.18A253.6,253.6,0,0,1,825,758.33Zm-79.87-21.57-.24.23-65.3,58.81a4.82,4.82,0,0,1-6.56-.12c-56-54.29-109.75-108.54-163.35-165q-8.88,3.6-18.11,6.44a226,226,0,0,1-111.36,5.38,1.16,1.16,0,0,0-1.09.33c-6.5,6.75-40.51,45.16-57.42,80.49a285.71,285.71,0,0,0-18.41,50.05,108.53,108.53,0,0,1-21.63,24.8,1.2,1.2,0,0,1-1.95-1.17c1-4.58,2-9.13,3.06-13.75,1.8-7.78,4.2-17.51,5.63-22.94,3.8-14.57,31.42-89.27,64.84-141.84a1011.58,1011.58,0,0,1,63.39-88.27C386.9,497.24,357.57,464,328.29,429.94a4.8,4.8,0,0,0-6.77-.51l-.08.07L247.9,495.72a4.81,4.81,0,0,1-6.78-.36l-31.56-35.05a4.79,4.79,0,0,1-1-4.8c1.91-5.38,3.65-10.63,5.27-15.94,1.52-5,2.84-9.87,3.76-14.3a140,140,0,0,0,2.83-33.3,97.48,97.48,0,0,0-8.75-34.06,4.78,4.78,0,0,1,1.15-5.56l164.33-148a4.79,4.79,0,0,1,6.77.36l80.56,89.47a4.8,4.8,0,0,1-.35,6.78L401,357.84a4.79,4.79,0,0,0-.42,6.7c26.67,31,53.38,61.37,80.4,91.44l2-2.17C558,374.21,632,309.47,708.16,255.6,735,236.63,761.91,219,789.8,202a1.2,1.2,0,0,1,1.77,1.42c-12.63,36.38-25.34,72.06-38.4,107.75-8.41,22.92-16.81,43.88-26.79,65.16A730.83,730.83,0,0,1,602.32,561.18q-5.51,6.9-11.48,13.36C641.41,627.59,692.19,678.77,745,730A4.8,4.8,0,0,1,745.15,736.76Z" style="fill:#ffffff"/><path d="M964.3,465.82l-.47-.22a41.44,41.44,0,0,0-17.2-4h-.75c-20.13-.59-36.5,2.32-48.66,8.66-12.33,6.44-21.65,14.65-28.5,25.11-7.29,11.15-11.73,23.58-13.57,38a130.28,130.28,0,0,0,2.5,46.68,138.21,138.21,0,0,0,14.83,36.58l.13.22a114.77,114.77,0,0,0,59.32,50.22l.33.12a120.4,120.4,0,0,0,36.42,7.31A498.79,498.79,0,0,0,1000,500q0-5.76-.14-11.49-4.9-4.08-10.06-7.82A148.94,148.94,0,0,0,964.3,465.82Z" style="fill:#ffffff"/></svg>