<svg xmlns="http://www.w3.org/2000/svg" viewBox="0 0 2917.56 1000"><title>Exactas</title><path d="M962.21,727.78q4.2,9-.6,13.5t-13.8,5.1a59,59,0,0,1-19.2-2.1q-10.2-2.7-16.2-8.1a97.86,97.86,0,0,1-13.5-21.3,132.67,132.67,0,0,1-8.1-23.1,143.6,143.6,0,0,1-3.6-32.4,190.1,190.1,0,0,1,2.7-32.4,180.51,180.51,0,0,1,7.2-28.5A102,102,0,0,1,907,577.2q22.8-37.8,55.2-62.4a361.55,361.55,0,0,1,71.4-42q6.6-33,14.4-65.1t16.2-63.3q3.6-16.78,7.5-32.7t8.1-31.5q-17.4,3.6-33.6,7.5t-31.8,8.7q-21,7.2-47.4,21a271.57,271.57,0,0,0-48.9,32.7q-22.5,18.9-35.7,41.4t-7.8,47.1q4.21,15,16.8,31.5t37.8,33.9l5.4,6.6q5.4,10.23-1.8,17.4T910,535.2a126.54,126.54,0,0,1-16.5-1.2,94.4,94.4,0,0,1-18.9-4.5,132,132,0,0,1-19.2-8.4A82.84,82.84,0,0,1,838,508.78a357.5,357.5,0,0,1-21-32.1,124,124,0,0,1-12.61-31.48,174.48,174.48,0,0,1-3.6-22.5,211.18,211.18,0,0,1-.6-27.9q.62-48,25.5-84t65.4-61.8q40.5-25.77,92.1-43.2a920.31,920.31,0,0,1,106.5-28.8q54.9-11.38,108.6-18.3t98.1-12.3q39.6-4.78,68.7-9.3t48.3-13.5q6.6,12,9.9,30.9a215.8,215.8,0,0,1,3.3,37.2,168.54,168.54,0,0,1-2.7,32.1q-2.7,13.81-8.1,15l-79.2,7.2q-50.4,4.83-102.9,10.5t-103.5,14.1q7.8,6,15.6,12.6a179.06,179.06,0,0,1,13.8,12.9,88.89,88.89,0,0,1,9.6,11.7c2.4,3.6,3.4,6.41,3,8.4q-4.8,31.23-12,61.5t-15.6,60.9q24-5.4,48.3-9.9t49.5-9.3q24-4.18,47.4-9t46.2-9.6q6,1.8,7.8,15.9a151.18,151.18,0,0,1,.6,30.3,168,168,0,0,1-4.8,30q-3.6,13.83-9,14.4l-28.8,1.8q-39.6,3-87,8.7a757,757,0,0,0-94.8,17.7q-7.2,24.63-12.6,49.5a517.21,517.21,0,0,0-8.4,51.3,439.74,439.74,0,0,0-2.7,54.3,406.53,406.53,0,0,0,5.1,58.5q3,22.83,21.6,31.8t44.4,9a213.9,213.9,0,0,0,42.6-4.5,357.38,357.38,0,0,0,43.5-11.7,341,341,0,0,0,39.3-15.9,216.28,216.28,0,0,0,30-17.1q11.4-9.57,21.9,2.1t15.3,33.9a112.9,112.9,0,0,1,3.3,18.6,110.4,110.4,0,0,1,.3,18,51.76,51.76,0,0,1-3.3,15.3q-2.7,6.9-6.9,9.9-24.6,15-63.6,25.2a321.28,321.28,0,0,1-81.6,10.2,291.21,291.21,0,0,1-59.1-6,181.55,181.55,0,0,1-53.4-19.8,142.82,142.82,0,0,1-41.7-35.7q-17.4-21.9-24.6-54.3a484,484,0,0,1-12.3-93.3,671.25,671.25,0,0,1,3.3-92.1,216.05,216.05,0,0,0-40.2,27.9A192.21,192.21,0,0,0,949,619.8q-6,9-10.5,29.1a89.47,89.47,0,0,0,.9,41.7,113.93,113.93,0,0,0,6.3,16.8,41,41,0,0,0,12.3,15Z" style="fill:#fe5000"/><path d="M1675.9,572.38,1665.1,603q-6.6,19.8-14.1,40.5a179,179,0,0,1-18.3,37.2,91.77,91.77,0,0,1-25.5,26.4q-14.7,9.9-35.1,8.7-10.8-.6-22.2-8.1a117.85,117.85,0,0,1-22.5-19.8,269.43,269.43,0,0,1-22.2-28.5q-11.1-16.2-21.3-34.8a628.42,628.42,0,0,1-66.9,57.3,358.3,358.3,0,0,1-70.5,41.1,19.83,19.83,0,0,1-15.9,3.9,31.07,31.07,0,0,1-15.3-7.2,28.62,28.62,0,0,1-9-14.1q-2.38-8.39,3.6-16.2a536.64,536.64,0,0,0,73.5-51.3,803.76,803.76,0,0,0,72.3-67.5Q1444.3,546,1434.1,522t-18.6-45.6l-8.4,25.8-14.39,43.2q-1.8,3-8.7,1.2a51.19,51.19,0,0,1-13.8-6,57.6,57.6,0,0,1-12-9.6c-3.39-3.6-4.7-6.79-3.9-9.6l-.6.6q3.6-15,9.3-35.4t12.3-42.6l18.6-63q3-8.37,11.1-17.1t18.9-8.7q7.2,0,15,4.8t16.2,16.2q15.6,39.6,28.8,72.9t25.2,60.9a921.84,921.84,0,0,0,56.4-74.7q25.8-38.07,46.2-74.7v-1.2q4.8-6.57,11.7-2.4t12.9,13.8a102,102,0,0,1,9.9,21q3.9,11.43,3.3,19.2-22.2,36-51.3,77.1t-63.3,81.3q32.4,68.4,45.6,69c3.6.41,7.2-.9,10.8-3.9a57.51,57.51,0,0,0,10.5-12,158.07,158.07,0,0,0,9.9-16.8q4.8-9.28,9.6-19.5c1.2-3.6,2.6-7.39,4.2-11.4s3.5-9,5.7-15,4.89-13.59,8.1-22.8,7-20.59,11.4-34.2c.8-2.4,3.39-3,7.8-1.8a64,64,0,0,1,14.1,6,54.51,54.51,0,0,1,12.9,9.9q5.4,5.72,4.8,9.9Z" style="fill:#fe5000"/><path d="M1895.5,460.77a5.31,5.31,0,0,1-2.7,5.7,22.41,22.41,0,0,1-8.1,3,58.33,58.33,0,0,1-10.8.9,30.33,30.33,0,0,1-10.8-1.8,213.91,213.91,0,0,1,20.7,12.6,124.38,124.38,0,0,1,18.9,15.9,89.06,89.06,0,0,1,13.5,17.7q5.08,9,5.1,17.4a93.19,93.19,0,0,0-2.1,9.3c-.6,3.41-1.11,6.9-1.5,10.5q-1.8,11.41-3.3,24.6t-2.4,25.8q-.9,12.6-.9,23.7a85.06,85.06,0,0,0,1.8,18.9c.39.81.3,1.41-.3,1.8s-.9.81-.9,1.2h4.2q15-6,26.4-19.8a159.74,159.74,0,0,0,20.1-31.5,293.87,293.87,0,0,0,15.3-37.8q6.61-20.07,12.61-38.68a42.75,42.75,0,0,0,3.3-8.4c.6-2.4,1.29-5,2.1-7.8q1.2-3,8.4-1.5a56.65,56.65,0,0,1,15,5.7,58.61,58.61,0,0,1,13.5,9.9q5.7,5.73,3.9,9.9l-7.8,24v.6q-11.4,35.43-25.2,69.9a223.62,223.62,0,0,1-37.2,62.1,97.62,97.62,0,0,1-9.3,10.5,83.51,83.51,0,0,1-13.5,10.8,75.79,75.79,0,0,1-17.7,8.4,61.46,61.46,0,0,1-22.5,2.7q-30-2.4-48.9-20.4t-26.7-45a193.29,193.29,0,0,1-36.3,43.5q-20.7,18.3-45.9,18.9-23.4-2.4-41.1-12.9a118,118,0,0,1-30-24.9,139,139,0,0,1-20.1-30.9,169,169,0,0,1-11.4-30.9q-3-15-3-21.6a233.58,233.58,0,0,1,.3-48.6,261.79,261.79,0,0,1,11.1-52.8,303.63,303.63,0,0,1,21.6-51,206.34,206.34,0,0,1,31.2-43.8A149.17,149.17,0,0,1,1744,366q21.9-11.37,48.3-11.4a104.45,104.45,0,0,1,15.6,1.2,165.67,165.67,0,0,1,16.8,3.6,74.74,74.74,0,0,1,28.2,15.3,102,102,0,0,1,20.4,24.6,157.85,157.85,0,0,1,13.8,30A239.8,239.8,0,0,1,1895.5,460.77Zm-70.49,0q4.8-3,13.8-1.2A85.29,85.29,0,0,1,1858,466.2a14.72,14.72,0,0,1-4.8-6.6c-.4-1.2-.9-2.59-1.5-4.2a40.41,40.41,0,0,1-1.5-4.8q-1.8-6-4.5-12.6a58.31,58.31,0,0,0-6.9-12.3,38.57,38.57,0,0,0-9.6-9.3,27.27,27.27,0,0,0-13.2-4.2q-22.2-.58-39,15.9t-28.5,41.7a247.3,247.3,0,0,0-17.7,54q-6,28.8-6.6,52.2a94.72,94.72,0,0,0,.3,16.5,93.23,93.23,0,0,0,3.9,19.5q3,13.83,10.8,22.8t25.2,4.2q7.78-2.37,17.1-13.8a194.69,194.69,0,0,0,18.3-27.3q9-15.87,16.8-33t12.6-30.9q1.8-18,2.4-34.8t-1.8-28.8Z" style="fill:#fe5000"/><path d="M2276.81,548.38a613.76,613.76,0,0,1-22.5,59.7,314.49,314.49,0,0,1-36.9,63.3q-13.82,16.83-29.1,26.1a135.1,135.1,0,0,1-29.71,13.8,118.62,118.62,0,0,1-26.69,5.4q-12.32.9-19.5.9-46.8,0-78.31-27T1990,616.78q-11.4-40.78-6.3-79.8t24.3-84.6q6.6-15,19.5-32.1a181.34,181.34,0,0,1,30.59-31.5,158.43,158.43,0,0,1,39.31-23.4A110.33,110.33,0,0,1,2143,357a67.27,67.27,0,0,1,43.2,16.5q18.59,15.93,24.6,41.7a88.88,88.88,0,0,1,2.7,23.7,73.9,73.9,0,0,1-5.1,24.3q-4.22,7.81-10.81,9.3a19.21,19.21,0,0,1-13.5-2.1,32.26,32.26,0,0,1-12-11.4,36,36,0,0,1-5.69-18q3.6-10.17.6-19.2a7.1,7.1,0,0,0-2.7-4.5q-2.12-1.48-6.3-.3-22.21,4.83-38.41,23.4a165.59,165.59,0,0,0-26.69,42.6,238.37,238.37,0,0,0-15.6,50.1q-5.12,26.1-5.1,45.9a57.91,57.91,0,0,1,1.5,10.8,112.25,112.25,0,0,0,1.5,13.2,139.62,139.62,0,0,0,6,17.7,88,88,0,0,0,8.7,16.2,66.49,66.49,0,0,0,11.69,13.2,33.19,33.19,0,0,0,15,7.5l-1.19-.6q12.6,3,27-1.8t28.8-17.1q14.4-12.27,28.2-32.1T2224,559.2q5.39-14.4,9.9-29.7t8.1-29.1q3.6-7.78,11.7-8.4a28.71,28.71,0,0,1,15.89,3.6,30.5,30.5,0,0,1,12.31,12.3q4.5,8.1.9,18.9Z" style="fill:#fe5000"/><path d="M2235.84,385.35q-9.6,3.61-17.73,0a28.37,28.37,0,0,1-12.62-10.51,25.7,25.7,0,0,1-4.21-15.33q.33-8.38,8.12-15a413.53,413.53,0,0,1,73.92-51.08q7.2-38.45,11.11-72.12a457.23,457.23,0,0,0,3.31-61.9q7.8-4.78,22.53.3A117,117,0,0,1,2350,175.62a129.34,129.34,0,0,1,26.14,24.94q11.13,14.13,11.12,27.34c-.4,3.22-1,7.51-1.8,12.92s-1.8,11.53-3,18.33q18.63-3.6,37.56-5.71a353.72,353.72,0,0,1,38.77-2.1c4,0,9.21.11,15.62.3s11.81.51,16.23.9a50.31,50.31,0,0,1,5.71,19.53,64.42,64.42,0,0,1-1.21,19.83,40,40,0,0,1-7.21,15.93q-5.1,6.62-12.32,6.61-6-.58-12.62-.9c-4.4-.19-8.81-.3-13.22-.3a342.26,342.26,0,0,0-40.86,2.4,350.9,350.9,0,0,0-39.67,7.21l-12,54.69-1.8,7.81q-3,11.44-7.51,31.25t-9.32,44.17q-4.8,24.35-9.61,51.09t-7.81,51.68q-3,24.94-3.61,46t3,33.66a5.58,5.58,0,0,0-.3,3,7.88,7.88,0,0,1,.3,1.8h4.21a66.87,66.87,0,0,0,26.44-19.53,149.45,149.45,0,0,0,19.84-30.65,304.76,304.76,0,0,0,15-36.65q6.61-19.53,12.62-38.17h-.6a64.39,64.39,0,0,1,3.3-10.51q2.11-5.1,3.91-9.92.6-3.6,7.51-1.8a56.83,56.83,0,0,1,14.13,6,64.11,64.11,0,0,1,12.92,9.91c3.8,3.82,5.49,7.13,5.1,9.92l-9,27A692.72,692.72,0,0,1,2411,623q-14.73,35.16-35.76,61.6a84.76,84.76,0,0,1-9.61,10.52,77.68,77.68,0,0,1-14.13,10.52,92.89,92.89,0,0,1-18,8.11,69.23,69.23,0,0,1-21.94,3.31q-27-1.22-43.27-22.24t-24-51.68A64.08,64.08,0,0,1,2241,629a113.13,113.13,0,0,1-.9-13.52,505.72,505.72,0,0,1,3.9-122q9.35-60.11,22.54-117.19a21.46,21.46,0,0,0,1.5-6c.2-2,.5-4,.9-6l-31.25,20.43Z" style="fill:#fe5000"/><path d="M2648.51,460.77a5.31,5.31,0,0,1-2.7,5.7,22.41,22.41,0,0,1-8.1,3,58.33,58.33,0,0,1-10.8.9,30.33,30.33,0,0,1-10.8-1.8,213.91,213.91,0,0,1,20.7,12.6,124.38,124.38,0,0,1,18.9,15.9,88.68,88.68,0,0,1,13.5,17.7q5.09,9,5.1,17.4a93.19,93.19,0,0,0-2.1,9.3c-.6,3.41-1.11,6.9-1.5,10.5q-1.8,11.41-3.3,24.6t-2.4,25.8q-.9,12.6-.9,23.7a85.06,85.06,0,0,0,1.8,18.9c.39.81.3,1.41-.3,1.8s-.9.81-.9,1.2h4.2q15-6,26.4-19.8a159.74,159.74,0,0,0,20.1-31.5,293.87,293.87,0,0,0,15.3-37.8q6.6-20.07,12.6-38.7a42.75,42.75,0,0,0,3.3-8.4c.6-2.4,1.29-5,2.1-7.8q1.2-3,8.4-1.5a56.65,56.65,0,0,1,15,5.7,58.61,58.61,0,0,1,13.5,9.9q5.7,5.73,3.9,9.9l-7.8,24v.6q-11.4,35.43-25.2,69.9a223.62,223.62,0,0,1-37.2,62.1,97.62,97.62,0,0,1-9.3,10.5,83.51,83.51,0,0,1-13.5,10.8,75.79,75.79,0,0,1-17.7,8.4,61.46,61.46,0,0,1-22.5,2.7q-30-2.4-48.9-20.4t-26.7-45a193.29,193.29,0,0,1-36.3,43.5q-20.7,18.3-45.9,18.9-23.4-2.4-41.1-12.9a118,118,0,0,1-30-24.9,139,139,0,0,1-20.1-30.9,169,169,0,0,1-11.4-30.9q-3-15-3-21.6a233.58,233.58,0,0,1,.3-48.6,261.79,261.79,0,0,1,11.1-52.8,303.63,303.63,0,0,1,21.6-51,206.69,206.69,0,0,1,31.2-43.8A149.17,149.17,0,0,1,2497,366q21.9-11.37,48.3-11.4a104.45,104.45,0,0,1,15.6,1.2,165.67,165.67,0,0,1,16.8,3.6,74.74,74.74,0,0,1,28.2,15.3,102,102,0,0,1,20.4,24.6,157.85,157.85,0,0,1,13.8,30A240.13,240.13,0,0,1,2648.51,460.77Zm-69.91,0q4.8-3,13.8-1.2a85.16,85.16,0,0,1,19.2,6.6,14.72,14.72,0,0,1-4.8-6.6c-.4-1.2-.9-2.59-1.5-4.2a40.41,40.41,0,0,1-1.5-4.8q-1.8-6-4.5-12.6a58.31,58.31,0,0,0-6.9-12.3,38.57,38.57,0,0,0-9.6-9.3,27.27,27.27,0,0,0-13.2-4.2q-22.2-.58-39,15.9t-28.5,41.7a247.3,247.3,0,0,0-17.7,54q-6,28.8-6.6,52.2a94.72,94.72,0,0,0,.3,16.5A93.23,93.23,0,0,0,2482,612q3,13.83,10.8,22.8T2518,639q7.78-2.37,17.1-13.8a194.69,194.69,0,0,0,18.3-27.3q9-15.87,16.8-33t12.6-30.9q1.8-18,2.4-34.8t-1.8-28.8Z" style="fill:#fe5000"/><path d="M2717.79,626.38a120.29,120.29,0,0,1-.6-49.2q4.82-24,18.6-38.4l8.4-21.6q8.42-28.8,18.3-57t21.9-54.6l8.4-19.2q6-16.2,14.7-34.8t29.1-43.2q10.2,4.81,25.8,13.5a185.66,185.66,0,0,1,28.2,19.2q12.6,10.51,18.3,21.9t-3.3,20.4l1.2-.6q-8.4,10.22-10.8,15.6t-5.4,13.8l-4.8,12a130.36,130.36,0,0,0-5.7,44.4,240.7,240.7,0,0,0,6.3,46.2q3,12.6,6.9,25.5t8.1,26.1l10.2,36q7.8,27,5.4,49.5t-13.2,38.1a67.9,67.9,0,0,1-29.1,23.7q-18.3,8.1-41.7,6.9a134.5,134.5,0,0,1-43.5-10.2,127.7,127.7,0,0,1-33.9-21,118.17,118.17,0,0,1-24-28.8A121.15,121.15,0,0,1,2717.79,626.38ZM2806,515a78.69,78.69,0,0,1-1.8-9.9,79.35,79.35,0,0,0-1.8-9.9L2791,528.79l-.6.6q3.6,4.83,9.3,16.5t10.5,24.6a143.12,143.12,0,0,1,6.9,24.6q2.1,11.7-2.1,17.1-7.2-9.57-16.2-11.1a23.7,23.7,0,0,0-16.2,2.7,33,33,0,0,0-11.7,11.7,20.07,20.07,0,0,0-2.7,15.3,82,82,0,0,0,3.6,7.5c1.61,3,3,5.91,4.2,8.7a53.19,53.19,0,0,0,18.6,14.1,70.79,70.79,0,0,0,19.2,5.7q9,1.22,14.7-3a24.31,24.31,0,0,0,8.4-11.4,47.76,47.76,0,0,0,2.7-16.8,94.14,94.14,0,0,0-2.4-20.4q-3-10.8-6.6-22.2t-8.4-23.4q-4.2-12.6-8.7-26.4A264.08,264.08,0,0,1,2806,515Z" style="fill:#fe5000"/><path d="M885.65,765.92,883.51,764l-1.85-2.22a138.11,138.11,0,0,1-19-30l-.11-.23A173.69,173.69,0,0,1,852,701.48l-.19-.79a183.62,183.62,0,0,1-4.6-41.33,230.11,230.11,0,0,1,3.26-39,220.61,220.61,0,0,1,8.74-34.63,142.23,142.23,0,0,1,6.87-16.89q-2.31-.72-4.58-1.51a173,173,0,0,1-24.85-10.87,123.16,123.16,0,0,1-25.75-18.23l-2.85-2.63-2.29-3.13a401.63,401.63,0,0,1-23.33-35.67l-.16-.27a164.06,164.06,0,0,1-16.68-41.63l-.18-.76A215.54,215.54,0,0,1,761,426.42l0-.21a254.57,254.57,0,0,1-.74-32.56c.63-39.68,11.59-75.21,32.58-105.59,19.57-28.3,45.41-52.8,76.83-72.8q13.95-8.88,29.16-16.89C807.5,77.86,662.84,0,500,0,223.86,0,0,223.86,0,500s223.86,500,500,500c171.76,0,323.29-86.61,413.31-218.54A76.12,76.12,0,0,1,885.65,765.92ZM745,730a4.8,4.8,0,0,1,.11,6.78l-.24.23-65.3,58.81a4.82,4.82,0,0,1-6.56-.12c-56-54.29-109.75-108.54-163.35-165q-8.88,3.6-18.11,6.44a226,226,0,0,1-111.36,5.38,1.16,1.16,0,0,0-1.09.33c-6.5,6.75-40.51,45.16-57.42,80.49a285.71,285.71,0,0,0-18.41,50.05,108.53,108.53,0,0,1-21.63,24.8,1.2,1.2,0,0,1-1.95-1.17c1-4.58,2-9.13,3.06-13.75,1.8-7.78,4.2-17.51,5.63-22.94,3.8-14.57,31.42-89.27,64.84-141.84a1011.58,1011.58,0,0,1,63.39-88.27C386.9,497.24,357.57,464,328.29,429.94a4.8,4.8,0,0,0-6.77-.51l-.08.07L247.9,495.72a4.81,4.81,0,0,1-6.78-.36l-31.56-35.05a4.79,4.79,0,0,1-1-4.8c1.91-5.38,3.65-10.63,5.27-15.94,1.52-5,2.84-9.87,3.76-14.3a140,140,0,0,0,2.83-33.3,97.48,97.48,0,0,0-8.75-34.06,4.78,4.78,0,0,1,1.15-5.56l164.33-148a4.79,4.79,0,0,1,6.77.36l80.56,89.47a4.8,4.8,0,0,1-.35,6.78L401,357.84a4.79,4.79,0,0,0-.42,6.7c26.67,31,53.38,61.37,80.4,91.44l2-2.17C558,374.21,632,309.47,708.16,255.6,735,236.63,761.91,219,789.8,202a1.2,1.2,0,0,1,1.77,1.42c-12.63,36.38-25.34,72.06-38.4,107.75-8.41,22.92-16.81,43.88-26.79,65.16A730.83,730.83,0,0,1,602.32,561.18q-5.51,6.9-11.48,13.36C641.41,627.59,692.19,678.77,745,730Z" style="fill:#ffffff"/><path d="M979.06,356.38a231.6,231.6,0,0,0-35.23,24.37c-11.41,9.58-20.47,20-26.91,31-3.47,5.92-4.53,11.1-3.46,17.11,1.18,3.59,3.83,9.21,9.77,17,4,5.22,12.19,13.83,28.71,25.23l1.32.91a403.23,403.23,0,0,1,43.84-26.06A497.19,497.19,0,0,0,979.06,356.38Z" style="fill:#ffffff"/></svg>