<svg xmlns="http://www.w3.org/2000/svg" viewBox="0 0 2866.51 1000"><title>Sociales</title><path d="M1289.78,287.57q-12,10.21-28.79,10.22a50.76,50.76,0,0,1-26.4-7.5,114.32,114.32,0,0,1-22.5-17.4,100.17,100.17,0,0,1-15.6-19.5q-5.71-9.58-5.1-13.8a214.43,214.43,0,0,0,22.8-15.3,129.4,129.4,0,0,0,20.1-18.9,70.22,70.22,0,0,0,12.9-21.9,45.69,45.69,0,0,0,1.8-24.3q-1.8-6.58-8.4-12t-21-7.2a41.27,41.27,0,0,0-9.9-1.2h-9.9a244.61,244.61,0,0,0-45,4.5,280.08,280.08,0,0,0-47.1,13.2,250.73,250.73,0,0,0-43.5,21.3,128.88,128.88,0,0,0-33.9,29.7,94.94,94.94,0,0,0-18.3,37.8q-4.8,20.7,3.6,45.3a143.1,143.1,0,0,0,15.6,32.1,256.48,256.48,0,0,0,23.7,31.2q13.5,15.3,28.8,30t31.5,29.7q19.8,18.62,39,37.5a383.4,383.4,0,0,1,35.1,39.6,300.92,300.92,0,0,1,27.6,42.9,156.18,156.18,0,0,1,15.9,47.4q4.18,36-9.6,73.8a200.68,200.68,0,0,1-42.3,68.4q-28.5,30.6-69.6,49.2t-90.9,16.8q-27-2.4-60.6-12.9a304.32,304.32,0,0,1-64.5-28.8,244.53,244.53,0,0,1-55.5-45,147.14,147.14,0,0,1-34.2-62.1q-10.2-39-1.8-74.1t43.8-69.3l-1.8.6c1.2-1.59,4.5-1.8,9.9-.6a111.06,111.06,0,0,1,19.2,6.6q11.08,4.82,23.4,11.4a219.29,219.29,0,0,1,22.5,13.8,179.93,179.93,0,0,1,16.8,13.2c4.39,4,6.6,7.2,6.6,9.6l-12.6,9.6q-10.8,7.2-21.3,15a95.89,95.89,0,0,0-18.3,17.7,61.06,61.06,0,0,0-11.1,22.2q-3.3,12.31.3,27.9,6,24,19.8,39a100.48,100.48,0,0,0,31.8,23.4,137.93,137.93,0,0,0,38.4,11.4,276,276,0,0,0,40.2,3q34.2,0,60.6-9.9t42.9-27.9q16.5-18,21.9-43.8t-2.4-58.2a116.64,116.64,0,0,0-13.8-31.8,212.13,212.13,0,0,0-22.8-30.3q-13.2-14.68-28.5-28.8t-31.5-27.9q-19.21-16.79-37.2-33.9a365.47,365.47,0,0,1-33-35.7,240.11,240.11,0,0,1-25.5-38.4,135,135,0,0,1-14.1-42.6,154.11,154.11,0,0,1,4.8-63.6,189,189,0,0,1,28.2-57.3,240.84,240.84,0,0,1,46.5-48.3,297,297,0,0,1,59.69-36.6,317.36,317.36,0,0,1,68.1-22.5,276.52,276.52,0,0,1,71.1-5.7q22.2,1.8,38.7,9.3a104.09,104.09,0,0,1,28.8,19.2A98.06,98.06,0,0,1,1294,133.37a155.53,155.53,0,0,1,12,33q8.38,37.8,4.2,66.3a147.37,147.37,0,0,1-18,52.5Zm535.79-36.85q-.6,15.6,0,30a169.79,169.79,0,0,0,3,26.4q1.79,6.61,9.3,16.2a139,139,0,0,0,17.7,18.6,170.8,170.8,0,0,0,21,15.9q10.8,6.9,19.2,8.7a166,166,0,0,1,3-33.6q3-14.4,6-28.2t6-27q3-13.2,1.8-30.6c-.41-2.4-2.31-5.89-5.7-10.5a156.17,156.17,0,0,0-12.9-15q-7.8-8.12-17.1-16.8t-18.3-15.6a107.24,107.24,0,0,0-16.8-10.8c-5.21-2.59-9.4-3.69-12.6-3.3l-7.2,12.6a197,197,0,0,1,3.6,31.2Q1826.19,235.12,1825.57,250.72ZM2866,651.22q-2.38,22.5-13.2,38.1a68,68,0,0,1-29.1,23.7q-18.32,8.1-41.7,6.9a134.82,134.82,0,0,1-43.5-10.2,127.7,127.7,0,0,1-33.9-21,118.36,118.36,0,0,1-24-28.8l-.16-.3q-3.87,5.64-8,11.12-13.82,16.82-29.1,26.1a135.48,135.48,0,0,1-29.7,13.8,119.71,119.71,0,0,1-26.7,5.4q-12.3.9-19.5.9-46.8,0-78.3-27-24.84-21.3-37.91-54.92a250.72,250.72,0,0,1-30.34,49.43,85.56,85.56,0,0,1-9.62,10.52,77.55,77.55,0,0,1-14.12,10.51,93,93,0,0,1-18,8.12,69.12,69.12,0,0,1-21.93,3.3q-27-1.2-43.27-22.23t-24-51.67c-.36-1-.67-2-1-3a223.77,223.77,0,0,1-29.26,44.38,97.62,97.62,0,0,1-9.3,10.5,84.05,84.05,0,0,1-13.5,10.8,76.2,76.2,0,0,1-17.7,8.4,61.67,61.67,0,0,1-22.5,2.7q-30-2.4-48.9-20.4t-26.7-45a193.51,193.51,0,0,1-36.3,43.5q-20.7,18.3-45.9,18.9-23.4-2.4-41.1-12.9a118.16,118.16,0,0,1-30-24.9,139,139,0,0,1-20.1-30.9,167.28,167.28,0,0,1-7.58-18.34,408.67,408.67,0,0,1-39.6,58.26q-4.22,4.22-10.8,9.9a101.26,101.26,0,0,1-14.7,10.5,92.68,92.68,0,0,1-18,8.1,67,67,0,0,1-21.3,3.3q-22.81-.6-38.1-18.3t-21.9-44.1c-.25-1.36-.5-2.73-.73-4.11q-6.66,10.47-14.12,20.42-13.77,16.81-29.1,26.1a135.27,135.27,0,0,1-29.7,13.8,119.71,119.71,0,0,1-26.7,5.4q-12.3.9-19.5.9-46.8,0-78.3-27t-44.1-73.8a214.9,214.9,0,0,1-6.86-35.91q-1.07,6.13-2.44,12.23a224.39,224.39,0,0,1-16.5,47.4,165.76,165.76,0,0,1-25.5,39,115,115,0,0,1-33.29,26.1,85.25,85.25,0,0,1-39.6,9.6q-39-.6-74.7-26.1t-57.3-77.7q-4.8-12.6-9.61-30a174.94,174.94,0,0,1-5.09-53.1,225.78,225.78,0,0,1,9.3-53.1,212.31,212.31,0,0,1,21.6-48.6,173.26,173.26,0,0,1,32.1-39.3,130.48,130.48,0,0,1,41.09-25.2,112.78,112.78,0,0,1,48.61-6.9,82.89,82.89,0,0,1,44.39,23.4,144.92,144.92,0,0,1,29.41,42,93.36,93.36,0,0,1,16.2,20.4,243.23,243.23,0,0,1,13.8,27q1.18,4.82,2.7,9.6a98.81,98.81,0,0,1,2.69,11.4,219.89,219.89,0,0,1,5.09,33.24q6.27-32.75,21.91-69.86,6.62-15,19.5-32.1a181.76,181.76,0,0,1,30.6-31.5,158,158,0,0,1,39.3-23.4,110,110,0,0,1,45.6-8.4,67.14,67.14,0,0,1,43.2,16.5q18.59,15.92,24.6,41.7a88,88,0,0,1,2.7,23.7,73.7,73.7,0,0,1-5.1,24.3q-4.2,7.8-10.8,9.3a19.26,19.26,0,0,1-13.5-2.1,32.49,32.49,0,0,1-12-11.4,36.14,36.14,0,0,1-5.7-18q3.6-10.19.6-19.2a7,7,0,0,0-2.7-4.5q-2.1-1.5-6.3-.3-22.2,4.81-38.4,23.4a165.29,165.29,0,0,0-26.7,42.6,238.59,238.59,0,0,0-15.6,50.1q-5.1,26.1-5.1,45.9a56.18,56.18,0,0,1,1.5,10.8,117.18,117.18,0,0,0,1.5,13.2,141.77,141.77,0,0,0,6,17.7,89.9,89.9,0,0,0,8.7,16.2,66.54,66.54,0,0,0,11.7,13.2,33.29,33.29,0,0,0,15,7.5l-1.2-.6q12.6,3,27-1.8t28.8-17.1q14.4-12.28,28.2-32.1t24.6-46.8q5.4-14.4,9.9-29.7t8.1-29.1a18.69,18.69,0,0,1,1.18-2.13q3.06-16.09,6.47-32.18,4.8-27,9.3-52.5a401.58,401.58,0,0,0,5.7-46.5l4.18-7.22q7.79-4.19,21.9,1.5a111.91,111.91,0,0,1,27.9,16.8,105.63,105.63,0,0,1,23.1,25.8q9.3,14.71,6.9,28.5c.39-.79.3,0-.3,2.4s-1.5,5.61-2.7,9.6-2.51,8.61-3.9,13.8-2.7,10-3.9,14.4q-6.62,23.4-14.7,53.7T1852.1,583a404,404,0,0,0-8.4,45.9q-2.1,18.9,3.3,18.9h4.2a76.16,76.16,0,0,0,29.7-19.5,166.72,166.72,0,0,0,23.1-30.9,335.25,335.25,0,0,0,18.6-36.9q6.44-15,12.52-29a262.73,262.73,0,0,1,9.48-40.28,301.3,301.3,0,0,1,21.6-51,206.08,206.08,0,0,1,31.2-43.8,148.76,148.76,0,0,1,39.9-30.6q21.9-11.39,48.3-11.4a104.45,104.45,0,0,1,15.6,1.2,165.67,165.67,0,0,1,16.8,3.6,74.6,74.6,0,0,1,28.2,15.3,102.19,102.19,0,0,1,20.4,24.6,157.57,157.57,0,0,1,13.8,30,239.71,239.71,0,0,1,8.4,31.5,5.31,5.31,0,0,1-2.7,5.7,22.6,22.6,0,0,1-8.1,3,59.2,59.2,0,0,1-10.8.9,30.78,30.78,0,0,1-10.8-1.8,211.93,211.93,0,0,1,20.7,12.6,123.8,123.8,0,0,1,18.9,15.9,89.06,89.06,0,0,1,13.5,17.7q5.09,9,5.1,17.4a92.56,92.56,0,0,0-2.1,9.3c-.6,3.41-1.11,6.9-1.5,10.5q-1.8,11.41-3.3,24.6t-2.4,25.8q-.9,12.6-.9,23.7a85.06,85.06,0,0,0,1.8,18.9c.39.81.3,1.41-.3,1.8s-.9.81-.9,1.2h4.2q15-6,26.4-19.8a160,160,0,0,0,20.1-31.5,293.87,293.87,0,0,0,15.3-37.8q6.6-20.09,12.6-38.7a43,43,0,0,0,3.3-8.4c.12-.49.25-1,.39-1.51.42-3.88.86-7.75,1.35-11.61q3.59-28.56,9.31-56.49t11.72-55.59l11.42-50.48q4.2-22.82,8.41-46.57t7.21-46.58q3-22.81,4.81-44.17t1.8-39.36q7.82-4.78,22.54.3a117.3,117.3,0,0,1,29.75,15.92,129.34,129.34,0,0,1,26.14,24.94q11.11,14.15,11.12,27.35a255.66,255.66,0,0,1-3.61,25.84q-3,16.83-7.51,37.86T2412.13,335q-5.1,22.53-9.31,42.37l-1.8,7.79q-3,11.44-7.52,31.25t-9.31,44.17q-4.82,24.35-9.62,51.08t-7.81,51.68q-3,25-3.6,46t3,33.65a5.53,5.53,0,0,0-.3,3,8.46,8.46,0,0,1,.3,1.8h4.21a66.87,66.87,0,0,0,26.44-19.53,149.26,149.26,0,0,0,19.83-30.65,305,305,0,0,0,15-36.66q3.27-9.69,6.41-19.16c.18-1.82.38-3.64.62-5.45q5.09-39,24.3-84.6,6.61-15,19.5-32.1a181.4,181.4,0,0,1,30.6-31.5,158,158,0,0,1,39.3-23.4,110,110,0,0,1,45.6-8.4,69.61,69.61,0,0,1,43.8,16.5q19.2,15.92,25.2,42.9,5.4,24-3,50.4v-.6q-14.4,54-48.6,90t-82.8,53.4a112.77,112.77,0,0,0,14.4,30.6q9.59,14.4,24.6,17.4l-1.2-.6q12.6,3,27-1.8t28.8-17.1q14.4-12.29,28.2-32.1,5.19-7.46,9.94-15.9a120.19,120.19,0,0,1,1.81-12.92q4.8-24,18.6-38.4l5.73-14.74q3.55-12.32,6.52-23.64a16.43,16.43,0,0,1,2.4-3.8q5.73-18.33,12-36.42,9.9-28.2,21.9-54.6l8.4-19.2q6-16.2,14.7-34.8t29.1-43.2q10.18,4.8,25.8,13.5a184.93,184.93,0,0,1,28.2,19.2q12.6,10.5,18.3,21.9t-3.3,20.4l1.2-.6q-8.4,10.2-10.8,15.6t-5.4,13.8l-4.8,12a130.11,130.11,0,0,0-5.7,44.4,240.8,240.8,0,0,0,6.3,46.2q3,12.6,6.9,25.5t8.1,26.1l10.2,36Q2868.35,628.72,2866,651.22ZM1476,470.32v-3c-3.21,0-6.41,1.31-9.6,3.9a41.33,41.33,0,0,0-8.4,9.3,50.9,50.9,0,0,0-5.71,11.4,33.14,33.14,0,0,0-2.09,10.8L1437,512.94c-3.6-1.2-6.81-4-9.6-8.4a89.22,89.22,0,0,1-7.5-14.7,111.65,111.65,0,0,1-5.4-17.1q-2.12-9-3.3-15.6a30.64,30.64,0,0,1,1.5-15.3,51.29,51.29,0,0,1,6.9-13.2,71.81,71.81,0,0,1,8.69-9.9,49.22,49.22,0,0,1,7.5-6c-1.6-.79-4.6-1.2-9-1.2q-12.58,1.21-26.09,10.5a99.79,99.79,0,0,0-23.7,23.1,147.66,147.66,0,0,0-16.8,33.3,199.15,199.15,0,0,0-9.6,38.1,215.34,215.34,0,0,0-2.4,39.3,170.37,170.37,0,0,0,4.8,36.3q4.79,22.8,16.79,38.1t32.42,16.48q21.6,1.21,38.4-16.8t26.69-45a216.83,216.83,0,0,0,12.31-58.2Q1482,495.54,1476,470.32Zm675.36-4.8a14.83,14.83,0,0,1-4.8-6.6c-.4-1.2-.9-2.59-1.5-4.2a42.35,42.35,0,0,1-1.5-4.8q-1.8-6-4.5-12.6a57.39,57.39,0,0,0-6.9-12.3,38.22,38.22,0,0,0-9.6-9.3,27.17,27.17,0,0,0-13.2-4.2q-22.2-.6-39,15.9t-28.5,41.7a247.84,247.84,0,0,0-17.7,54q-6,28.8-6.6,52.2a94.74,94.74,0,0,0,.3,16.5,93.36,93.36,0,0,0,3.9,19.5q3,13.81,10.8,22.8t25.2,4.2q7.8-2.39,17.1-13.8a194.69,194.69,0,0,0,18.3-27.3q9-15.88,16.8-33t12.6-30.9q1.8-18,2.4-34.8t-1.8-28.8l-4.8-9.6q4.8-3,13.8-1.2A84.67,84.67,0,0,1,2151.36,465.52Zm377,92.42a180.16,180.16,0,0,0,60-47.1q24.6-29.7,33.6-71.1v.6a23,23,0,0,0,1.5-9.6c-.21-3.19-.51-6-.9-8.4q-2.35-8.4-9.6-6v0a67,67,0,0,0-34.5,19.2,144.55,144.55,0,0,0-25.2,35.4,223.52,223.52,0,0,0-16.8,43.5A249.94,249.94,0,0,0,2528.4,557.94Zm260.19,77.47a94.61,94.61,0,0,0-2.4-20.4q-3-10.8-6.6-22.2t-8.4-23.4q-4.21-12.6-8.7-26.4a264.08,264.08,0,0,1-7.5-28.22h0a75.55,75.55,0,0,1-1.8-9.9,83.19,83.19,0,0,0-1.8-9.9L2740,528.61l-.6.6q3.6,4.81,9.3,16.5t10.5,24.6a144.68,144.68,0,0,1,6.9,24.6q2.1,11.7-2.1,17.1-7.2-9.59-16.2-11.1a23.6,23.6,0,0,0-16.2,2.7,33,33,0,0,0-11.7,11.7,20.1,20.1,0,0,0-2.7,15.3,79.43,79.43,0,0,0,3.6,7.5c1.6,3,3,5.91,4.2,8.7a53.19,53.19,0,0,0,18.6,14.1,70.89,70.89,0,0,0,19.2,5.7q9,1.21,14.7-3a24.36,24.36,0,0,0,8.4-11.4A47.54,47.54,0,0,0,2788.59,635.41Z" style="fill:#fe5000"/><path d="M874.85,781.87a283.5,283.5,0,0,1-64.49-52.29,187.67,187.67,0,0,1-43.42-78.91l0-.16c-8.45-32.31-9.13-63.77-2-93.53,6.89-28.77,23.44-56.7,49.24-83.12l-.26-.37c6.46-8.56,21.62-22,50.5-15.55l.82.19A152.17,152.17,0,0,1,891.08,467c8.26,3.6,17,7.87,26.06,12.7A262.46,262.46,0,0,1,943.69,496a222.6,222.6,0,0,1,20.43,16.06l.41.37c4.87,4.43,19.66,17.92,19.66,39.17V571.4l-29.36,22.37-1.05.7c-6.6,4.41-13.21,9.06-19.63,13.83l-.11.08a55.69,55.69,0,0,0-10.66,10.31,20.59,20.59,0,0,0-3.81,7.61l-.05.17c-.33,1.25-.35,4,.57,8.18,2.34,9.19,5.82,16.34,10.34,21.26l.14.15a60,60,0,0,0,19.14,14.08A96.64,96.64,0,0,0,968,676.48,499.06,499.06,0,0,0,1000,500q0-9.11-.33-18.13c-9.08-8.13-18-16.35-26.59-24.54a406.65,406.65,0,0,1-36.54-39.53A280.14,280.14,0,0,1,906.8,373l-.06-.11a174.49,174.49,0,0,1-18.28-55.23l-.11-.76a192.74,192.74,0,0,1,6-80.13l0-.13a228.7,228.7,0,0,1,10.94-29.4C814.54,81.69,666.81,0,500,0,223.86,0,0,223.86,0,500s223.86,500,500,500c165.08,0,311.47-80,402.52-203.35Q888.36,789.89,874.85,781.87ZM745,730a4.8,4.8,0,0,1,.11,6.78l-.24.23-65.3,58.81a4.82,4.82,0,0,1-6.56-.12c-56-54.29-109.75-108.54-163.35-165q-8.88,3.6-18.11,6.44a226,226,0,0,1-111.36,5.38,1.16,1.16,0,0,0-1.09.33c-6.5,6.75-40.51,45.16-57.42,80.49a285.71,285.71,0,0,0-18.41,50.05,108.53,108.53,0,0,1-21.63,24.8,1.2,1.2,0,0,1-1.95-1.17c1-4.58,2-9.13,3.06-13.75,1.8-7.78,4.2-17.51,5.63-22.94,3.8-14.57,31.42-89.27,64.84-141.84a1011.58,1011.58,0,0,1,63.39-88.27C386.9,497.24,357.57,464,328.29,429.94a4.8,4.8,0,0,0-6.77-.51l-.08.07L247.9,495.72a4.81,4.81,0,0,1-6.78-.36l-31.56-35.05a4.79,4.79,0,0,1-1-4.8c1.91-5.38,3.65-10.63,5.27-15.94,1.52-5,2.84-9.87,3.76-14.3a140,140,0,0,0,2.83-33.3,97.48,97.48,0,0,0-8.75-34.06,4.78,4.78,0,0,1,1.15-5.56l164.33-148a4.79,4.79,0,0,1,6.77.36l80.56,89.47a4.8,4.8,0,0,1-.35,6.78L401,357.84a4.79,4.79,0,0,0-.42,6.7c26.67,31,53.38,61.37,80.4,91.44l2-2.17C558,374.21,632,309.47,708.16,255.6,735,236.63,761.91,219,789.8,202a1.2,1.2,0,0,1,1.77,1.42c-12.63,36.38-25.34,72.06-38.4,107.75-8.41,22.92-16.81,43.88-26.79,65.16A730.83,730.83,0,0,1,602.32,561.18q-5.51,6.9-11.48,13.36C641.41,627.59,692.19,678.77,745,730Z" style="fill:#ffffff"/></svg>