<svg xmlns="http://www.w3.org/2000/svg" viewBox="0 0 3543.85 1000"><title>Ingeniería</title><path d="M3025.39,328.68q-2.68-6.89-.3-15.3l64.8-107.4q1.8-2.39,6.3,1.5a94.66,94.66,0,0,1,10.2,10.8q5.7,6.91,12,16.2a201,201,0,0,1,10.8,17.7,108.84,108.84,0,0,1,6.9,15.3c1.59,4.61,2,7.71,1.2,9.3q-17.4,19.19-32.1,30t-29.7,21l-19.8,13.8a13.27,13.27,0,0,1-11.1,3.3,22.56,22.56,0,0,1-11.4-5.1A26.43,26.43,0,0,1,3025.39,328.68Zm-626.09-76.5q-.6,15.61,0,30a172.24,172.24,0,0,0,3,26.4q1.8,6.62,9.3,16.2a139.62,139.62,0,0,0,17.7,18.6,169.81,169.81,0,0,0,21,15.9q10.8,6.92,19.2,8.7a166.88,166.88,0,0,1,3-33.6q3-14.4,6-28.2t6-27q3-13.19,1.8-30.6c-.4-2.4-2.3-5.89-5.7-10.5a153.39,153.39,0,0,0-12.9-15q-7.8-8.1-17.1-16.8t-18.3-15.6a107.24,107.24,0,0,0-16.8-10.8q-7.8-3.88-12.6-3.3l-7.2,12.6a194.79,194.79,0,0,1,3.6,31.2Q2399.9,236.58,2399.3,252.18ZM1251.05,727.38q-6.3.6-14.7,7.8-5.4,3-12.6,7.2a29.46,29.46,0,0,1-15,4.2,16.23,16.23,0,0,1-6-1.5c-2.4-1-4.41-1.9-6-2.7Q1183.54,731,1177,702.18q-6.62-27-7.2-62.7t2.4-76.2q3-40.5,9.3-84t14.1-85.5q7.79-42,16.2-80.7t15.9-69.9q7.49-31.19,12.9-52.8t7.8-29.4q3.6-5.4.6-15.6t-11.4-20.7q-8.41-10.49-22.5-18.6T1182.35,98A474.27,474.27,0,0,0,1093,112.68a441.71,441.71,0,0,0-85.2,32.1,397.94,397.94,0,0,0-76.8,50.4,341.5,341.5,0,0,0-63.3,69.9q-27.3,39.92-45,89.7t-22.5,109.8a46.81,46.81,0,0,0,6.6,28.5,76.93,76.93,0,0,0,21,22.5,113.37,113.37,0,0,0,29.4,15.3,107.32,107.32,0,0,0,31.8,6.3q-3.6-30,1.8-65.7a361.61,361.61,0,0,1,19.2-72.6,433.93,433.93,0,0,1,35.4-72.6,366.69,366.69,0,0,1,50.7-65.7,318.78,318.78,0,0,1,65.1-51.6,254,254,0,0,1,78-30.6c2.4,0,4-.39,4.8-1.2l-2.4,10.2v-.6q-7.81,29.41-16.2,67.5t-15.9,81q-7.52,42.92-13.2,88.8t-7.8,90.9a847.56,847.56,0,0,0,.3,87.6q2.39,42.61,11.4,78.6,8.38,38.4,26.1,68.1a129.53,129.53,0,0,0,46.5,46.5,154.39,154.39,0,0,0,26.4,12.6,70.76,70.76,0,0,0,23.4,4.2q21.6,0,38.4-16.2,8.38-7.2,8.4-22.5t-7.2-33.3Q1257.35,726.78,1251.05,727.38ZM3543.39,528.93l-7.8,24v.6q-11.4,35.37-25.21,69.83a223.42,223.42,0,0,1-37.21,62,97.61,97.61,0,0,1-9.31,10.49,83,83,0,0,1-13.5,10.79,76,76,0,0,1-17.71,8.39,61.7,61.7,0,0,1-22.51,2.7q-30-2.4-48.91-20.38t-26.71-45a193.33,193.33,0,0,1-36.32,43.45q-20.7,18.28-45.92,18.88-23.4-2.4-41.11-12.88a118.52,118.52,0,0,1-30-24.88,138.51,138.51,0,0,1-20.11-30.87q-4-8.68-7-16.8A244,244,0,0,1,3113.69,686q-4.2,4.21-10.8,9.89a100.74,100.74,0,0,1-14.71,10.49,92.46,92.46,0,0,1-18,8.09,67,67,0,0,1-21.3,3.3q-22.83-.62-38.12-18.28t-21.91-44.06c-.08-.42-.15-.85-.23-1.27a203.94,203.94,0,0,1-19.27,24.65,135.19,135.19,0,0,1-36,28.17q-20.1,10.78-44.71,9.59A62.37,62.37,0,0,1,2862.5,710a76.66,76.66,0,0,1-21-15.89,94.1,94.1,0,0,1-15.61-22.47,111.72,111.72,0,0,1-9.3-26.38,160.78,160.78,0,0,1-2.7-37.16,172.09,172.09,0,0,1,4.8-33,239,239,0,0,1,9.9-30.57q6-15,13.21-30.57l7.8-16.78v.59l9-20.38a43.79,43.79,0,0,1,8.11-12q5.09-5.38,20.71-10.19-7.82,1.8-12.61,2.7a65.66,65.66,0,0,0-8.4,2.09q-6.62,1.8-13.81,3.6a58.14,58.14,0,0,1-17.4,1.2h-6.31q-8.4,20.41-15,39.9c-4.4,13-12.15,36.52-12.15,36.63l-2.25,8.07a608.62,608.62,0,0,1-22.5,59.7,314,314,0,0,1-36.9,63.29q-13.8,16.83-29.1,26.1a134.81,134.81,0,0,1-29.7,13.8,118.6,118.6,0,0,1-26.7,5.4q-12.3.9-19.5.9-46.8,0-78.29-27-28.92-24.81-41.92-66.38a410.36,410.36,0,0,1-41.17,61q-4.2,4.23-10.8,9.9a100.5,100.5,0,0,1-14.7,10.5,92.35,92.35,0,0,1-18,8.1,66.72,66.72,0,0,1-21.3,3.3q-22.8-.6-38.1-18.3-14.64-16.94-21.31-41.88c-1.84,3.07-3.68,6.18-5.68,9.18a162,162,0,0,1-30.6,35.7q-17.1,14.7-37.5,14.7a79.34,79.34,0,0,1-25.8-4.5,76.21,76.21,0,0,1-24.6-14.1,90.25,90.25,0,0,1-20.09-24.9q-8.7-15.3-12.9-36.29a269.59,269.59,0,0,1-3.6-35.4q-.61-17.38.6-36.6t4.2-41.7q3-22.48,7.2-50.7,6-24.6,1.8-39.6l-19.2,24.6a371.73,371.73,0,0,0-29.4,40.8,477.67,477.67,0,0,0-24.6,45.6,572.67,572.67,0,0,0-6.9,76.8,426,426,0,0,0,5.7,79.19q.6,6.6-9.9,6t-23.4-5.7a138.91,138.91,0,0,1-24.9-12.9q-12-7.77-14.4-15.6-3.45-17.29-5.31-34a329.06,329.06,0,0,1-22.29,34q-13.8,16.83-29.1,26.1a135,135,0,0,1-29.7,13.8,118.6,118.6,0,0,1-26.7,5.4q-12.3.9-19.5.9-46.8,0-78.3-27t-44.09-73.79a203.28,203.28,0,0,1-7.71-62.86l-63.68,227.25,22.8,12q22.8,12,46.81,23.7t51.59,21.9h-.54q6,1.8,7.2,12.27t-3,22.76a53.4,53.4,0,0,1-14.4,21.85q-10.2,9.58-26.4,9.58-13.8,0-27.6-7.78l-43.8-25.75q-9.6-6.59-18.9-12t-18.3-10.18a328.62,328.62,0,0,1-24.3,48.2,172.88,172.88,0,0,1-31.5,38,135,135,0,0,1-42,25.44q-24,9.28-56.4,9.88a203.67,203.67,0,0,1-38.7-3.89,129.07,129.07,0,0,1-38.4-14.07,117.29,117.29,0,0,1-33-27.84q-14.68-17.67-22.5-44.61-9-31.73-2.1-59.27a105.7,105.7,0,0,1,25.8-47.6q18.9-20.07,47.1-31.14t61.2-11.08q16.8,0,30.9,1.2t26.7,3.29a201.14,201.14,0,0,1,24.6,5.69q12,3.6,24,7.79l9.6-52.69a8.51,8.51,0,0,1,.6-3.6,99.77,99.77,0,0,1-23.4,15,68.57,68.57,0,0,1-25.2,6q-23.4-2.4-41.1-12.87a118.35,118.35,0,0,1-30-24.85,138.63,138.63,0,0,1-20.1-30.84c-1.21-2.54-2.33-5.05-3.38-7.52a303.06,303.06,0,0,1-16.11,28.18,161.84,161.84,0,0,1-30.6,35.63q-17.11,14.67-37.5,14.67a80.08,80.08,0,0,1-25.8-4.49,76.34,76.34,0,0,1-24.6-14.08,90.17,90.17,0,0,1-20.1-24.84Q1359.6,659,1355.41,638a268.22,268.22,0,0,1-3.6-35.32q-.61-17.36.6-36.53t4.2-41.61q3-22.44,7.2-50.59,6-24.56,1.8-39.52L1346.41,459A371.61,371.61,0,0,0,1317,499.7a477.42,477.42,0,0,0-24.6,45.51,572,572,0,0,0-6.9,76.64,424.35,424.35,0,0,0,5.7,79q.6,6.58-9.9,6t-23.4-5.69a138.78,138.78,0,0,1-24.9-12.87q-12-7.77-14.4-15.57a380.22,380.22,0,0,1-6.9-52.39q-1.5-25.44-.6-50.3t3.3-49.09q2.41-24.24,4.8-48.8,3-28.74,5.4-56t3.6-52.39q5.41-3.59,16.8-.3A111.84,111.84,0,0,1,1269,374a141.86,141.86,0,0,1,24.3,17.66q11.7,10.5,17.7,21.85a198.88,198.88,0,0,1,38.1-36.52,87.64,87.64,0,0,1,45.9-16.77q7.8,0,19.2,7.49a122.84,122.84,0,0,1,21.6,18.26,112.86,112.86,0,0,1,17.1,23.35q6.9,12.6,6.9,22.15-3,30.53-7.5,57.19t-7.5,45.8q-3,16.74-5.1,30.83t-3,27.85a264.13,264.13,0,0,0-.3,28.14,229.16,229.16,0,0,0,3.6,31.13c0-.78.8-2,2.4-3.59h-.6q14.42-9,32.1-30.54t31.5-58.67q4.2-9.58,7.2-18.56c.13-.38.25-.76.38-1.13a264.3,264.3,0,0,1,10.41-46.77,302.28,302.28,0,0,1,21.6-50.9,206.74,206.74,0,0,1,31.2-43.71A148.92,148.92,0,0,1,1616.1,368,106.76,106.76,0,0,1,1680,357.8a163,163,0,0,1,16.8,3.59,74.67,74.67,0,0,1,28.2,15.27,101.53,101.53,0,0,1,20.4,24.55,157,157,0,0,1,13.8,29.94,236.76,236.76,0,0,1,8.4,31.43,4.87,4.87,0,0,1-2.1,5.09,19.74,19.74,0,0,1-7.2,3.29,38,38,0,0,1-9.9,1.2,41.72,41.72,0,0,1-10.2-1.2,144.7,144.7,0,0,1,21.9,12.28,165.24,165.24,0,0,1,20.1,15.86,71.46,71.46,0,0,1,14.1,17.67,41.76,41.76,0,0,1,2.65,5.82q6.35-32.09,21.64-68.39,6.62-15,19.5-32a182.06,182.06,0,0,1,30.6-31.43,158.68,158.68,0,0,1,39.3-23.35,110.31,110.31,0,0,1,45.6-8.38,69.74,69.74,0,0,1,43.8,16.46q19.2,15.87,25.2,42.81,5.4,24-3,50.3V468q-14.4,53.88-48.6,89.81t-82.8,53.29a112.21,112.21,0,0,0,14.4,30.53q9.6,14.37,24.6,17.37l-1.2-.6q12.6,3,27-1.8t28.8-17.06q14.4-12.27,28.2-32t24.6-46.71q5.4-14.37,9.9-29.63t8.1-29c.26-.53.53-1,.82-1.53q1.4-14.15,2.78-28.41,3-28.74,5.4-56t3.6-52.39q5.42-3.59,16.8-.3A111.63,111.63,0,0,1,2106,374a141.86,141.86,0,0,1,24.3,17.66q11.7,10.5,17.7,21.85a198.88,198.88,0,0,1,38.1-36.52,87.67,87.67,0,0,1,45.9-16.77q7.8,0,19.2,7.49a122.42,122.42,0,0,1,21.6,18.26,112.86,112.86,0,0,1,17.1,23.35q6.9,12.6,6.9,22.16-3,30.51-7.5,57.18t-7.5,45.8q-3,16.74-5.1,30.83t-3,27.85a264.13,264.13,0,0,0-.3,28.14,232.57,232.57,0,0,0,3.6,31.13c0-.78.8-2,2.4-3.59h-.6q14.4-9,32.1-30.54t31.5-58.67q4.2-9.58,7.2-18.56l6-18v-.91s6.76-37.16,10.7-55.74q4.8-27,9.3-52.5a397,397,0,0,0,5.7-46.5l4.2-7.2q7.8-4.18,21.9,1.5a111.91,111.91,0,0,1,27.9,16.8,105.25,105.25,0,0,1,23.1,25.8q9.3,14.71,6.9,28.5c.4-.79.3,0-.3,2.4s-1.5,5.6-2.7,9.6-2.5,8.59-3.9,13.8-2.7,10-3.9,14.4q-6.6,23.4-14.7,53.7t-14.4,57.3a406.06,406.06,0,0,0-8.4,45.9c-1.4,12.6-.3,18.9,3.3,19.89h4.2c11.3-5,21.48-11.73,29.7-20.49a165.83,165.83,0,0,0,23.1-30.9,332.63,332.63,0,0,0,18.6-36.9l10.62-24.61q5.17-38.62,24.17-83.69,6.63-15,19.5-32.1a181.76,181.76,0,0,1,30.6-31.5,158.56,158.56,0,0,1,39.3-23.4,110.36,110.36,0,0,1,45.6-8.4,69.61,69.61,0,0,1,43.8,16.5q19.2,15.9,25.2,42.9,5.4,24-3.09,50.4V467q-14.27,54-48.51,90t-82.8,53.4a112.63,112.63,0,0,0,14.4,30.6q9.6,14.4,24.6,17.4l-1.2-.6q12.6,3,27-1.8t28.8-17.1q14.4-12.3,28.2-32.1t24.6-46.8c3.6-9.6,30-78,31.5-83.1q5.12-17.08,9.3-30.3a61.65,61.65,0,0,1-12-24q-4.2-18.62,0-33t10.8-33.6a157.94,157.94,0,0,0,4.2-17.4q1.79-9.59,3-23.4,10.2,4.82,20.7,9.9a114.38,114.38,0,0,1,19.5,12,85.8,85.8,0,0,1,15.9,15.9,50,50,0,0,1,9.27,20.45,96.39,96.39,0,0,1,1.8,11.7,63.44,63.44,0,0,1-.6,14.7l-14.4,27q-1.8,3.6,3.3.9a110.73,110.73,0,0,0,13.8-9.3q8.7-6.6,19.5-15.6t20.7-18q9.9-9,17.7-16.8t10.2-12c2.4,0,5.79,1.2,10.2,3.6s9,5.09,13.8,8.1,9,5.81,12.6,8.4a75.82,75.82,0,0,1,6.6,5.1,39.5,39.5,0,0,1,9.9,24.3q.9,14.11-3.6,30.9a263.49,263.49,0,0,1-12.6,35.7q-8.1,18.9-17.7,38.7-5.4,10.78-11.1,21.6t-10.5,22.2q-3.6,8.4-8.4,19.2a225.6,225.6,0,0,0-8.4,21.9,152.88,152.88,0,0,0-5.4,21.9q-1.8,10.8,0,18,0,3.6,7.2,3.6,6.6.62,15.3-4.5a84.31,84.31,0,0,0,17.7-14.4,140.33,140.33,0,0,0,17.1-21.9,135.74,135.74,0,0,0,13.5-27.6s9.3-25.39,13.5-37.8c2.37-6.92,4.35-13.22,6-19q4.29-23.82,9.34-47.65,4.8-27,9.3-52.5a399.41,399.41,0,0,0,5.7-46.5l4.2-7.2q7.8-4.18,21.9,1.5a111.91,111.91,0,0,1,27.9,16.8,105.25,105.25,0,0,1,23.1,25.8q9.3,14.71,6.9,28.5c.4-.79.3,0-.3,2.4s-1.5,5.6-2.7,9.6-2.5,8.59-3.9,13.8-2.7,10-3.9,14.4q-6.6,23.4-14.7,53.7T3065,584a406.06,406.06,0,0,0-8.4,45.9c-1.4,12.6-.3,18.9,3.3,19.89h4.2c11.13-5.2,21.1-12,29.1-20.79a180.5,180.5,0,0,0,23.4-31.5,346.62,346.62,0,0,0,19.2-37.5q7-16,13.08-31.67a270.21,270.21,0,0,1,8.81-36.15,303.29,303.29,0,0,1,21.6-51,206.8,206.8,0,0,1,31.2-43.8,149.13,149.13,0,0,1,39.9-30.6,106.54,106.54,0,0,1,63.9-10.2,165.67,165.67,0,0,1,16.8,3.6,74.39,74.39,0,0,1,28.2,15.3,101.54,101.54,0,0,1,20.4,24.6,157.57,157.57,0,0,1,13.8,30,236.63,236.63,0,0,1,8.4,31.5,5.28,5.28,0,0,1-2.7,5.7,22.6,22.6,0,0,1-8.1,3,59.2,59.2,0,0,1-10.8.9,30.78,30.78,0,0,1-10.8-1.8,210.75,210.75,0,0,1,20.7,12.6,122.76,122.76,0,0,1,18.9,15.9,88.68,88.68,0,0,1,13.5,17.7q5.1,9,5.1,17.4c-.85,3.06-1.56,6.17-2.1,9.3-.6,3.41-1.1,6.9-1.5,10.5q-1.8,11.41-3.3,24.6t-2.4,25.8q-.9,12.62-.9,23.7a85.66,85.66,0,0,0,1.8,18.9q.6,1.19-.3,1.8a2.88,2.88,0,0,0-.9,1.21h4.72q15-6,26.41-19.78a159.86,159.86,0,0,0,20.11-31.47,289.92,289.92,0,0,0,15.3-37.76q6.6-20.07,12.61-38.66a42.66,42.66,0,0,0,3.3-8.39c.6-2.4,1.3-5,2.1-7.79q1.2-3,8.4-1.5a56.82,56.82,0,0,1,15,5.69,58.28,58.28,0,0,1,13.5,9.89Q3545.24,524.74,3543.39,528.93ZM1637.92,817.38a310.8,310.8,0,0,0-36-10.5,190.85,190.85,0,0,0-35.4-4.5,170.12,170.12,0,0,0-40.8,3.9,127.35,127.35,0,0,0-37.5,14.1q-16.5,9.6-24.9,24t-3,34.2a58.21,58.21,0,0,0,11.1,22.2,66.5,66.5,0,0,0,17.1,14.7,74.9,74.9,0,0,0,21,8.4,96,96,0,0,0,22.2,2.7,77.74,77.74,0,0,0,18.3-2.1,131.68,131.68,0,0,0,16.5-5.1q25.2-13.2,42.3-40.5h0A306.75,306.75,0,0,0,1637.92,817.38Zm91.76-351a9.72,9.72,0,0,1-4.2-6c-.4-1.2-.9-2.59-1.5-4.2a44.47,44.47,0,0,1-1.5-4.8q-1.8-6-4.5-12.6a57,57,0,0,0-6.9-12.3,38.57,38.57,0,0,0-9.6-9.3,27.27,27.27,0,0,0-13.2-4.2q-22.2-.6-39,15.9t-28.5,41.7a247.84,247.84,0,0,0-17.7,54q-6,28.8-6.6,52.2a102,102,0,0,0,4.2,36q3,13.79,10.8,22.8t25.2,4.2q7.2-1.78,15.3-11.4a184.89,184.89,0,0,0,16.2-22.8q8.1-13.22,15.6-28.5t12.9-29.1q3.6-21,5.4-42.6a177,177,0,0,0-1.2-41.4c2.8-1.59,6.7-2.1,11.7-1.5A98.06,98.06,0,0,1,1729.68,466.38Zm162.45,49.41a250.19,250.19,0,0,0-8.14,43.5,179.8,179.8,0,0,0,60-47.1q24.6-29.7,33.6-71.1v.6a23,23,0,0,0,1.5-9.6c-.16-2.81-.46-5.62-.9-8.4q-2.4-8.38-9.6-6a67,67,0,0,0-34.5,19.2,145.2,145.2,0,0,0-25.2,35.4,223.52,223.52,0,0,0-16.8,43.5Zm712,0a250.19,250.19,0,0,0-8.14,43.5,179.8,179.8,0,0,0,60-47.1q24.6-29.7,33.6-71.1v.6a23,23,0,0,0,1.5-9.6c-.16-2.81-.46-5.62-.9-8.4q-2.4-8.38-9.6-6a67,67,0,0,0-34.5,19.2,145.2,145.2,0,0,0-25.2,35.4,223.52,223.52,0,0,0-16.8,43.5Zm760.51-48.4a14.72,14.72,0,0,1-4.8-6.6c-.4-1.2-.9-2.59-1.5-4.2a44.47,44.47,0,0,1-1.5-4.8q-1.8-6-4.5-12.6a57,57,0,0,0-6.9-12.3,38.4,38.4,0,0,0-9.6-9.3,27.27,27.27,0,0,0-13.2-4.2q-22.2-.6-39,15.9t-28.5,41.7a247.84,247.84,0,0,0-17.7,54q-6,28.8-6.6,52.2a102,102,0,0,0,4.2,36q3,13.78,10.8,22.8t25.2,4.2q7.8-2.38,17.1-13.8a194.69,194.69,0,0,0,18.3-27.3q9-15.92,16.8-33t12.6-30.9q1.8-18,2.4-34.8t-1.8-28.8l-4.8-9.6q4.8-3,13.8-1.2h0A84.84,84.84,0,0,1,3364.64,467.39Z" style="fill:#fe5000"/><path d="M947.42,413a322.25,322.25,0,0,0-17.1,64.6c-3,20.08-3.57,38.53-1.61,54.83l5.61,46.81-47.09-2.08a147.15,147.15,0,0,1-43.39-8.55,153.25,153.25,0,0,1-39.36-20.51A116.18,116.18,0,0,1,772.68,514l-.08-.13a87.32,87.32,0,0,1-12.27-52.61C763.8,418,772.1,377.67,785,341.38s29.6-69.53,49.65-98.84A381.07,381.07,0,0,1,885.84,182C794.13,70.84,655.34,0,500,0,223.86,0,0,223.86,0,500s223.86,500,500,500,500-223.86,500-500a500,500,0,0,0-22.64-149.21A395.21,395.21,0,0,0,947.42,413ZM745,730a4.8,4.8,0,0,1,.11,6.78l-.24.23-65.3,58.81a4.82,4.82,0,0,1-6.56-.12c-56-54.29-109.75-108.54-163.35-165q-8.88,3.6-18.11,6.44a226,226,0,0,1-111.36,5.38,1.16,1.16,0,0,0-1.09.33c-6.5,6.75-40.51,45.16-57.42,80.49a285.71,285.71,0,0,0-18.41,50.05,108.53,108.53,0,0,1-21.63,24.8,1.2,1.2,0,0,1-1.95-1.17c1-4.58,2-9.13,3.06-13.75,1.8-7.78,4.2-17.51,5.63-22.94,3.8-14.57,31.42-89.27,64.84-141.84a1011.58,1011.58,0,0,1,63.39-88.27C386.9,497.24,357.57,464,328.29,429.94a4.8,4.8,0,0,0-6.77-.51l-.08.07L247.9,495.72a4.81,4.81,0,0,1-6.78-.36l-31.56-35.05a4.79,4.79,0,0,1-1-4.8c1.91-5.38,3.65-10.63,5.27-15.94,1.52-5,2.84-9.87,3.76-14.3a140,140,0,0,0,2.83-33.3,97.48,97.48,0,0,0-8.75-34.06,4.78,4.78,0,0,1,1.15-5.56l164.33-148a4.79,4.79,0,0,1,6.77.36l80.56,89.47a4.8,4.8,0,0,1-.35,6.78L401,357.84a4.79,4.79,0,0,0-.42,6.7c26.67,31,53.38,61.37,80.4,91.44l2-2.17C558,374.21,632,309.47,708.16,255.6,735,236.63,761.91,219,789.8,202a1.2,1.2,0,0,1,1.77,1.42c-12.63,36.38-25.34,72.06-38.4,107.75-8.41,22.92-16.81,43.88-26.79,65.16A730.83,730.83,0,0,1,602.32,561.18q-5.51,6.9-11.48,13.36C641.41,627.59,692.19,678.77,745,730Z" style="fill:#ffffff"/></svg>